<svg xmlns="http://www.w3.org/2000/svg" xmlns:xlink="http://www.w3.org/1999/xlink" width="500" zoomAndPan="magnify" viewBox="0 0 375 374.999991" height="500" preserveAspectRatio="xMidYMid meet" version="1.0"><defs><clipPath id="cf1e5b75f1"><path d="M 25.953125 25.953125 L 349.203125 25.953125 L 349.203125 349.203125 L 25.953125 349.203125 Z M 25.953125 25.953125 " clip-rule="nonzero"/></clipPath><clipPath id="b35120baa5"><path d="M 70 71 L 307 71 L 307 305.726562 L 70 305.726562 Z M 70 71 " clip-rule="nonzero"/></clipPath><clipPath id="14c4e28227"><path d="M 70 71 L 307 71 L 307 305.726562 L 70 305.726562 Z M 70 71 " clip-rule="nonzero"/></clipPath></defs><g clip-path="url(#cf1e5b75f1)"><path fill="#000000" d="M 349.203125 316.878906 C 349.203125 334.734375 334.734375 349.203125 316.878906 349.203125 L 58.277344 349.203125 C 40.425781 349.203125 25.953125 334.734375 25.953125 316.878906 L 25.953125 58.277344 C 25.953125 40.425781 40.425781 25.953125 58.277344 25.953125 L 316.878906 25.953125 C 334.734375 25.953125 349.203125 40.425781 349.203125 58.277344 Z M 349.203125 316.878906 " fill-opacity="1" fill-rule="nonzero"/></g><g clip-path="url(#b35120baa5)"><path fill="#000000" d="M 74.054688 135.234375 C 68.296875 139.460938 71.195312 149.253906 72.007812 155.054688 C 72.039062 155.222656 72.074219 155.363281 72.128906 155.523438 C 71.730469 157.035156 72.503906 158.828125 74.503906 158.675781 C 80.054688 158.261719 85.207031 160.570312 86.78125 166.246094 C 88.589844 172.769531 82.195312 176.136719 76.835938 176.871094 C 76.714844 176.894531 76.605469 176.925781 76.484375 176.957031 C 75.019531 176.617188 73.210938 177.410156 73.210938 179.371094 C 73.179688 186 72.863281 192.621094 73.648438 199.210938 C 73.691406 199.71875 73.882812 200.148438 74.136719 200.492188 C 73.953125 201.640625 74.46875 202.800781 75.96875 203.007812 C 88.949219 204.804688 91.417969 221.3125 77.695312 224.3125 C 77.074219 224.449219 76.628906 224.761719 76.316406 225.140625 C 74.867188 224.878906 73.210938 225.722656 73.210938 227.679688 C 73.210938 227.679688 73.265625 239.824219 73.648438 245.996094 C 73.664062 246.234375 73.691406 246.441406 73.761719 246.648438 C 73.554688 248.0625 74.382812 249.648438 76.230469 249.671875 C 88.007812 249.734375 92.722656 267.785156 79.242188 269.503906 C 78.730469 269.570312 78.300781 269.761719 77.933594 270.039062 C 76.691406 270.09375 75.433594 270.921875 75.363281 272.523438 C 74.933594 282.082031 74.519531 291.65625 74.089844 301.207031 C 73.09375 302.726562 73.792969 305.296875 76.230469 305.296875 C 76.230469 305.296875 96.914062 305.296875 105.53125 305.296875 C 105.960938 305.296875 106.34375 305.210938 106.65625 305.074219 C 107.960938 305.574219 109.503906 305.160156 109.753906 303.402344 C 111.035156 294.378906 124.550781 288.511719 126.308594 300.378906 C 126.320312 300.5 126.375 300.609375 126.390625 300.710938 C 126.046875 302.191406 126.835938 304.007812 128.804688 304.007812 C 136.871094 304.039062 144.90625 304.4375 152.9375 305.296875 C 153.390625 305.351562 153.753906 305.28125 154.074219 305.160156 C 155.339844 305.113281 156.625 304.285156 156.820312 302.710938 C 158.167969 291.671875 172.210938 290.070312 174.8125 300.886719 C 173.539062 302.449219 174.144531 305.335938 176.644531 305.089844 C 184.675781 304.285156 192.726562 304.191406 200.777344 303.777344 C 201.519531 303.746094 202.085938 303.457031 202.5 303.042969 C 203.375 302.695312 204.105469 301.9375 204.226562 300.777344 C 204.777344 295.171875 209.242188 289.777344 215.3125 290.621094 C 221.707031 291.519531 221.859375 296.988281 221.691406 302.058594 C 221.652344 302.589844 221.773438 303.027344 221.980469 303.386719 C 222.234375 304.414062 223.046875 305.296875 224.480469 305.296875 C 224.480469 305.296875 238.273438 305.296875 245.164062 305.296875 C 245.960938 305.296875 246.558594 305.019531 246.996094 304.589844 C 247.71875 304.214844 248.285156 303.5 248.40625 302.503906 C 249.027344 296.867188 252.601562 291.328125 257.992188 289.269531 C 266.269531 286.132812 267.941406 294.464844 268.644531 300.332031 C 268.675781 300.488281 268.714844 300.609375 268.746094 300.738281 C 268.523438 301.921875 269.046875 303.15625 270.554688 303.484375 C 281.335938 305.710938 292.210938 304.742188 303.121094 304.644531 C 305.175781 304.644531 305.949219 302.695312 305.503906 301.191406 L 305.503906 274.871094 C 306.917969 273.199219 305.535156 269.917969 302.882812 270.675781 C 296.949219 272.371094 292.65625 268.246094 291.261719 262.730469 C 289.535156 255.917969 294.558594 251.082031 300.984375 250.308594 C 301.191406 250.285156 301.382812 250.238281 301.574219 250.1875 C 302.800781 250.078125 304.035156 249.273438 304.210938 247.714844 C 305.105469 239.613281 305.039062 231.34375 303.464844 223.328125 C 303.464844 223.304688 303.464844 223.289062 303.464844 223.289062 C 303.550781 221.933594 302.730469 220.515625 300.984375 220.566406 C 286.46875 220.875 290.585938 204.78125 302.261719 203.960938 C 303.742188 203.851562 304.761719 202.855469 304.847656 201.367188 C 305.3125 193.949219 304.738281 186.570312 304.640625 179.164062 C 304.640625 178.929688 304.609375 178.707031 304.554688 178.5 C 304.570312 177.1875 303.742188 175.875 302.054688 175.929688 C 289.328125 176.359375 286.867188 157.195312 300.761719 157.808594 C 301.964844 157.863281 302.730469 157.210938 303.074219 156.367188 C 303.496094 155.953125 303.78125 155.363281 303.78125 154.570312 C 303.742188 148.097656 303.382812 141.652344 303.34375 135.179688 C 303.34375 134.511719 303.136719 133.988281 302.816406 133.589844 C 302.332031 132.578125 301.257812 131.78125 299.863281 132.027344 C 292.433594 133.351562 289.882812 113.707031 300.332031 113.171875 C 300.828125 113.15625 301.242188 113 301.589844 112.792969 C 302.625 112.546875 303.535156 111.742188 303.574219 110.378906 C 303.828125 99.0625 302.53125 87.792969 303.980469 76.53125 C 304.058594 76.011719 303.980469 75.605469 303.8125 75.234375 C 303.605469 74.199219 302.816406 73.355469 301.398438 73.496094 C 291.882812 74.515625 282.316406 74.582031 272.746094 74.582031 C 272.472656 74.582031 272.234375 74.636719 272.003906 74.683594 C 270.730469 74.738281 269.4375 75.566406 269.296875 77.167969 C 268.832031 82.707031 263.578125 85.867188 258.472656 86.398438 C 252.179688 87.058594 250.785156 83.398438 250.546875 78.035156 C 250.53125 77.320312 250.246094 76.769531 249.871094 76.378906 C 249.566406 75.480469 248.769531 74.773438 247.542969 74.804688 C 240.097656 74.945312 232.699219 74.238281 225.378906 72.941406 C 224.382812 72.773438 223.53125 73.132812 222.964844 73.714844 C 222.257812 74.117188 221.722656 74.84375 221.691406 75.878906 C 221.40625 82.554688 217.398438 88.160156 210.414062 88.675781 C 203.605469 89.175781 199.964844 83.621094 200.140625 77.390625 C 200.15625 76.242188 199.566406 75.496094 198.777344 75.136719 C 198.386719 74.515625 197.695312 74.085938 196.691406 74.152344 C 190.257812 74.582031 183.851562 74.929688 177.441406 74.183594 C 175.9375 73.648438 173.867188 74.429688 173.828125 76.53125 C 173.746094 82.363281 170.472656 87.585938 164.246094 87.984375 C 157.839844 88.359375 155.148438 82.484375 155.324219 76.945312 C 155.324219 76.640625 155.261719 76.355469 155.199219 76.101562 C 155.054688 74.914062 154.234375 73.808594 152.730469 73.714844 C 145.6875 73.339844 138.648438 73.6875 131.597656 73.714844 C 131.496094 73.714844 131.390625 73.738281 131.265625 73.753906 C 129.789062 73.785156 128.148438 75.042969 128.460938 77 C 129.234375 81.777344 124.828125 84.503906 120.578125 84.761719 C 115.082031 85.085938 111.949219 81.105469 111.992188 75.878906 C 112.015625 74.460938 111.105469 73.671875 110.03125 73.449219 C 109.863281 73.339844 109.671875 73.234375 109.449219 73.164062 C 98.292969 69.390625 86.171875 73.101562 74.933594 74.582031 C 74.484375 74.636719 74.105469 74.789062 73.785156 75.011719 C 73.027344 75.398438 72.4375 76.101562 72.351562 77.167969 C 71.554688 87.242188 71.554688 97.28125 72.351562 107.355469 C 72.449219 108.75 73.441406 109.949219 74.933594 109.949219 C 82.25 109.925781 88.035156 113.652344 88.257812 121.386719 C 88.503906 130.175781 79.472656 131.210938 74.054688 135.234375 " fill-opacity="1" fill-rule="nonzero"/></g><path fill="#8ae1ff" d="M 95.519531 200.730469 C 95.671875 200.589844 95.488281 200.039062 95.019531 199.125 C 94.773438 198.671875 94.46875 198.128906 94.085938 197.507812 C 93.65625 196.917969 93.140625 196.226562 92.550781 195.484375 C 91.953125 194.730469 91.117188 194.085938 90.3125 193.296875 C 89.445312 192.574219 88.398438 191.984375 87.363281 191.292969 C 86.792969 190.933594 86.28125 190.6875 85.746094 190.394531 C 85.4375 190.242188 85.316406 190.144531 85.125 190.019531 C 85.109375 190.003906 85.09375 190.003906 85.070312 189.980469 C 85.109375 189.980469 85.125 189.550781 85.398438 189.039062 L 85.574219 188.640625 L 85.589844 188.570312 L 85.605469 188.554688 L 85.746094 188.347656 L 86.003906 187.910156 L 86.144531 187.6875 L 86.265625 187.589844 C 86.503906 187.34375 86.902344 186.984375 87.398438 186.691406 C 87.867188 186.390625 88.433594 186.140625 89.019531 185.863281 C 90.152344 185.296875 91.554688 184.671875 92.5 183.53125 L 93.121094 182.894531 C 93.3125 182.585938 93.503906 182.289062 93.710938 181.996094 C 94.125 181.390625 94.347656 180.824219 94.554688 180.269531 C 94.773438 179.703125 94.898438 179.164062 95.019531 178.652344 C 95.144531 178.128906 95.226562 177.632812 95.257812 177.164062 C 95.488281 175.269531 95.433594 173.820312 95.410156 172.804688 C 95.382812 171.800781 95.273438 171.21875 95.089844 171.179688 C 94.882812 171.148438 94.621094 171.664062 94.292969 172.667969 C 93.960938 173.628906 93.6875 175.117188 93.242188 176.773438 C 93.140625 177.203125 93.019531 177.617188 92.84375 178.046875 C 92.707031 178.476562 92.550781 178.929688 92.328125 179.328125 C 92.121094 179.757812 91.902344 180.1875 91.640625 180.492188 L 91.28125 181.03125 L 90.621094 181.636719 C 90 182.328125 89.003906 182.742188 87.828125 183.277344 C 86.640625 183.820312 85.222656 184.328125 83.898438 185.878906 L 83.675781 186.152344 L 83.535156 186.375 L 83.261719 186.8125 L 83.136719 187.035156 L 83.007812 187.273438 L 82.929688 187.414062 L 82.707031 187.933594 L 82.5 188.464844 L 82.332031 189.121094 C 82.210938 189.5 82.195312 190.203125 82.347656 190.796875 C 82.472656 191.125 82.625 191.484375 82.816406 191.707031 C 83.023438 191.914062 83.230469 192.105469 83.429688 192.277344 C 83.773438 192.5 84.195312 192.742188 84.449219 192.867188 C 85.015625 193.144531 85.621094 193.378906 86.089844 193.640625 C 87.054688 194.222656 88.050781 194.675781 88.863281 195.246094 C 89.640625 195.867188 90.46875 196.335938 91.085938 196.917969 C 91.707031 197.523438 92.277344 198.035156 92.8125 198.503906 C 93.3125 199.019531 93.742188 199.472656 94.125 199.816406 C 94.867188 200.523438 95.367188 200.851562 95.519531 200.730469 Z M 97.519531 220.277344 C 97.65625 216.078125 96.585938 213.6875 96.253906 213.769531 C 95.796875 213.839844 96.101562 216.308594 95.464844 220.070312 C 95.144531 221.910156 94.554688 224.089844 93.339844 226.160156 C 92.191406 228.246094 90.261719 230.042969 87.8125 231.160156 C 86.210938 231.828125 84.503906 232.144531 82.847656 232.3125 L 81.644531 232.417969 L 81.519531 233.5 C 81.367188 234.867188 81.503906 236.347656 82.125 237.589844 C 82.746094 238.855469 83.691406 239.699219 84.554688 240.320312 C 86.296875 241.578125 87.792969 242.285156 88.933594 243.074219 C 90.066406 243.835938 90.796875 244.59375 91.308594 245.117188 C 91.816406 245.738281 92.121094 246.082031 92.277344 245.996094 C 92.4375 245.921875 92.414062 245.476562 92.175781 244.6875 C 91.847656 243.871094 91.195312 242.753906 90.054688 241.679688 C 88.207031 239.714844 84.296875 238.140625 84.195312 235.003906 C 85.761719 234.835938 87.386719 234.507812 88.972656 233.832031 C 92.054688 232.449219 94.46875 230.019531 95.710938 227.449219 C 97 224.878906 97.433594 222.347656 97.519531 220.277344 Z M 96.953125 134.597656 C 97.742188 132.746094 97.726562 131.183594 97.636719 130.160156 C 97.496094 129.125 97.328125 128.589844 97.121094 128.589844 C 96.929688 128.613281 96.722656 129.140625 96.515625 130.078125 C 96.253906 130.992188 95.949219 132.332031 95.121094 133.628906 C 94.308594 134.957031 92.933594 136.089844 90.933594 137.082031 C 89.003906 138.078125 86.503906 138.992188 84.121094 140.753906 C 83.5 141.238281 82.898438 141.738281 82.484375 142.183594 L 82.140625 142.527344 C 82.058594 142.621094 82.085938 142.566406 81.902344 142.773438 L 81.726562 142.980469 C 81.503906 143.257812 81.273438 143.5625 81.050781 143.878906 C 80.652344 144.53125 80.246094 145.273438 80.171875 146.269531 C 80.085938 147.292969 80.59375 148.34375 81.160156 148.894531 C 82.308594 150.03125 83.414062 150.414062 84.394531 150.859375 C 85.347656 151.242188 86.242188 151.601562 87.054688 151.910156 C 88.628906 152.554688 89.722656 153.191406 90.398438 153.773438 C 91.019531 154.347656 91.332031 154.863281 91.539062 154.792969 C 91.695312 154.742188 91.832031 154.140625 91.292969 153.105469 C 90.773438 152.101562 89.554688 150.996094 87.984375 150.085938 C 87.195312 149.625 86.3125 149.171875 85.4375 148.6875 C 84.585938 148.21875 83.621094 147.667969 83.160156 147.101562 C 82.929688 146.824219 82.929688 146.6875 82.953125 146.480469 C 82.96875 146.257812 83.136719 145.855469 83.429688 145.464844 C 83.574219 145.25 83.726562 145.042969 83.914062 144.84375 L 84.058594 144.683594 C 84.089844 144.667969 84.140625 144.597656 84.15625 144.582031 L 84.519531 144.253906 C 85 143.738281 85.4375 143.425781 85.882812 143.082031 C 87.8125 141.628906 90.136719 140.664062 92.246094 139.429688 C 93.296875 138.824219 94.277344 138.078125 95.105469 137.265625 C 95.910156 136.421875 96.585938 135.507812 96.953125 134.597656 Z M 117.167969 94.089844 C 117.167969 93.9375 116.546875 93.785156 115.390625 93.660156 C 114.253906 93.507812 112.554688 93.46875 110.582031 93.125 C 108.605469 92.78125 106.621094 91.867188 104.949219 89.695312 C 102.894531 87.019531 101.757812 82.445312 99.039062 80.941406 C 96.429688 79.515625 91.601562 80.789062 88.8125 81.105469 C 87.570312 81.257812 86.328125 81.464844 85.039062 82.015625 C 84.695312 82.195312 84.296875 82.414062 83.964844 82.621094 L 83.636719 82.875 L 83.46875 83 L 83.429688 83.039062 C 83.429688 83.039062 83.328125 83.121094 83.292969 83.175781 L 83.191406 83.289062 C 82.929688 83.621094 82.625 84.003906 82.472656 84.3125 L 82.074219 85.261719 C 81.296875 87.640625 81.144531 89.847656 80.84375 91.765625 C 80.707031 92.765625 80.5 93.746094 80.417969 94.835938 C 80.402344 95.417969 80.363281 96.039062 80.675781 96.816406 C 80.800781 97.183594 81.066406 97.488281 81.3125 97.78125 C 81.558594 97.988281 81.796875 98.179688 82.042969 98.371094 C 82.96875 98.941406 83.773438 99.230469 84.488281 99.613281 C 85.222656 99.976562 85.898438 100.335938 86.519531 100.71875 C 89.070312 102.167969 90.34375 104.117188 90.675781 105.613281 C 90.949219 106.320312 90.894531 107.0625 90.964844 107.507812 C 91.019531 107.960938 91.101562 108.222656 91.210938 108.222656 C 91.308594 108.222656 91.417969 107.992188 91.554688 107.546875 C 91.679688 107.101562 91.914062 106.496094 91.816406 105.515625 C 91.792969 105.015625 91.761719 104.476562 91.539062 103.941406 C 91.449219 103.664062 91.347656 103.375 91.257812 103.058594 C 91.117188 102.78125 90.933594 102.507812 90.773438 102.214844 C 90.089844 101.027344 88.972656 99.976562 87.660156 99.007812 C 87 98.527344 86.296875 98.058594 85.554688 97.628906 C 84.792969 97.183594 83.988281 96.785156 83.398438 96.371094 C 83.292969 96.269531 83.175781 96.179688 83.078125 96.09375 C 83.078125 95.988281 82.984375 95.972656 82.96875 95.886719 C 82.929688 95.765625 82.929688 95.441406 82.96875 95.058594 C 83.078125 94.214844 83.292969 93.261719 83.484375 92.25 C 83.867188 90.15625 84.105469 88.078125 84.738281 86.242188 L 85 85.652344 C 85.09375 85.46875 85.191406 85.429688 85.261719 85.292969 L 85.277344 85.246094 L 85.414062 85.140625 L 85.761719 84.886719 C 85.921875 84.808594 86.035156 84.761719 86.195312 84.671875 C 87.015625 84.324219 88.066406 84.117188 89.15625 84.003906 C 92.207031 83.636719 95.273438 83.828125 98.363281 83.757812 C 99.550781 86.867188 101.359375 89.28125 103.191406 91.269531 C 103.445312 91.535156 103.707031 91.8125 103.953125 92.074219 L 104.050781 92.179688 L 104.175781 92.296875 L 104.226562 92.335938 L 104.433594 92.488281 L 104.839844 92.796875 C 105.117188 93.011719 105.324219 93.210938 105.667969 93.402344 C 106.015625 93.59375 106.34375 93.761719 106.6875 93.9375 C 108.015625 94.558594 109.242188 94.726562 110.359375 94.851562 C 112.585938 94.972656 114.253906 94.726562 115.414062 94.574219 C 116.546875 94.421875 117.167969 94.269531 117.167969 94.089844 Z M 118.464844 282.238281 C 118.464844 282.03125 117.734375 281.824219 116.363281 281.628906 C 115 281.507812 112.960938 281.378906 110.429688 281.992188 C 109.171875 282.335938 107.847656 282.820312 106.496094 283.738281 C 106.175781 283.960938 105.824219 284.199219 105.476562 284.445312 C 105.1875 284.683594 104.933594 284.945312 104.65625 285.199219 L 104.242188 285.582031 L 104.011719 285.773438 L 103.996094 285.804688 L 103.859375 285.941406 L 103.8125 286.011719 L 103.707031 286.148438 C 103.445312 286.515625 103.140625 286.894531 102.949219 287.269531 C 102.066406 288.773438 101.445312 290.375 100.65625 291.65625 C 100.449219 292.046875 100.308594 292.140625 100.1875 292.363281 C 100.140625 292.460938 99.882812 292.625 99.71875 292.738281 L 99.605469 292.847656 L 99.445312 292.914062 C 98.960938 293.097656 98.117188 293.222656 97.289062 293.261719 C 93.863281 293.359375 90.4375 292.914062 87.308594 292.5 C 87.554688 288.535156 87.691406 285.183594 87.46875 282.789062 C 87.308594 280.113281 87.070312 278.5625 86.78125 278.5625 C 86.503906 278.5625 86.195312 280.097656 85.898438 282.75 C 85.691406 285.429688 85.125 289.132812 84.625 293.484375 L 84.488281 294.742188 L 85.730469 294.949219 C 89.171875 295.554688 93.035156 296.289062 97.449219 296.175781 C 98.449219 296.089844 99.429688 296.039062 100.625 295.554688 L 101.054688 295.347656 L 101.085938 295.347656 L 101.261719 295.222656 L 101.34375 295.140625 L 101.484375 295.03125 C 101.675781 294.878906 101.8125 294.808594 102.019531 294.570312 C 102.449219 294.105469 102.894531 293.535156 103.085938 293.136719 C 104.066406 291.449219 104.589844 289.878906 105.277344 288.605469 C 105.429688 288.257812 105.636719 288.027344 105.808594 287.738281 L 105.859375 287.636719 L 105.898438 287.597656 L 106.035156 287.445312 L 106.429688 287.03125 C 106.6875 286.769531 106.949219 286.496094 107.203125 286.242188 C 107.449219 286.050781 107.707031 285.859375 107.945312 285.664062 C 108.882812 284.90625 110.015625 284.355469 111.050781 283.960938 C 113.152344 283.179688 115.066406 282.996094 116.378906 282.773438 C 117.707031 282.597656 118.464844 282.429688 118.464844 282.238281 Z M 131.6875 122.453125 C 132.035156 121.722656 129.34375 119.773438 125.671875 118.101562 C 122 116.582031 118.769531 115.960938 118.464844 116.707031 C 118.148438 117.449219 120.894531 119.277344 124.582031 120.796875 C 128.148438 122.4375 131.335938 123.171875 131.6875 122.453125 Z M 133.375 117.550781 C 133.683594 116.8125 131.496094 115.1875 128.476562 113.914062 C 125.464844 112.632812 122.773438 112.21875 122.464844 112.949219 C 122.152344 113.691406 124.34375 115.324219 127.355469 116.605469 C 130.371094 117.863281 133.0625 118.292969 133.375 117.550781 Z M 144.324219 292.929688 C 144.851562 292.363281 142.460938 289.515625 138.980469 286.976562 C 135.722656 284.585938 132.839844 282.238281 132.253906 282.875 C 131.75 283.410156 133.476562 286.480469 137.214844 289.292969 C 140.75 291.878906 143.746094 293.535156 144.324219 292.929688 Z M 146.613281 288.910156 C 147.167969 288.359375 145.734375 285.910156 143.109375 283.5625 C 140.234375 281.148438 137.5625 280.550781 137.132812 281.148438 C 136.648438 281.851562 138.910156 283.769531 141.21875 285.789062 C 143.664062 287.96875 146.046875 289.492188 146.613281 288.910156 Z M 192.050781 92.695312 C 192.105469 92.503906 191.277344 92.003906 189.675781 91.191406 C 188.863281 90.816406 187.851562 90.347656 186.488281 90.085938 C 186.125 90.042969 185.8125 89.933594 185.34375 89.972656 C 184.9375 89.988281 184.378906 89.988281 184.085938 90.101562 L 183.574219 90.25 C 183.574219 90.25 183.503906 90.261719 183.449219 90.277344 L 183.3125 90.332031 L 183.175781 90.417969 L 182.882812 90.59375 C 182.484375 90.832031 182.09375 91.078125 181.796875 91.382812 C 180.453125 92.574219 179.433594 94.046875 178.316406 95.441406 C 178.023438 95.785156 177.722656 96.125 177.433594 96.46875 C 177.164062 96.746094 176.882812 97.046875 176.589844 97.335938 L 175.984375 97.765625 L 175.691406 98.011719 C 175.691406 98.011719 175.59375 98.082031 175.554688 98.097656 L 175.46875 98.125 C 175.054688 98.347656 174.640625 98.59375 174.214844 98.816406 C 170.710938 100.558594 166.316406 101.234375 161.777344 100.734375 C 157.125 100.144531 153.144531 97.460938 150.234375 94.605469 C 149.40625 93.816406 148.875 93.195312 148.132812 92.335938 C 147.925781 92.113281 147.789062 91.921875 147.511719 91.675781 C 147.234375 91.453125 146.9375 91.230469 146.644531 91.039062 C 146.390625 90.898438 146.175781 90.816406 145.957031 90.707031 L 145.632812 90.554688 L 145.472656 90.484375 L 145.234375 90.386719 L 145.128906 90.363281 C 140.058594 88.84375 137.769531 91.109375 134.425781 94.574219 C 133.320312 95.734375 132.769531 96.4375 132.90625 96.578125 C 133.03125 96.730469 133.804688 96.300781 135.128906 95.402344 C 140.941406 91.453125 143.496094 91.507812 148.300781 96.453125 C 149.871094 98.097656 151.765625 99.714844 153.9375 100.988281 C 156.128906 102.269531 158.667969 103.265625 161.402344 103.621094 C 166.453125 104.203125 171.484375 103.335938 175.441406 101.203125 C 175.914062 100.925781 176.398438 100.652344 176.867188 100.375 L 176.957031 100.320312 L 176.988281 100.28125 L 177.125 100.199219 L 177.28125 100.074219 L 177.570312 99.835938 L 178.144531 99.355469 C 178.558594 98.941406 178.964844 98.511719 179.335938 98.097656 C 179.625 97.695312 179.933594 97.296875 180.230469 96.898438 C 181.335938 95.351562 182.230469 93.898438 183.199219 92.886719 C 183.421875 92.59375 183.671875 92.433594 183.917969 92.265625 L 184.085938 92.128906 L 184.179688 92.058594 L 184.675781 91.851562 C 185.054688 91.675781 185.230469 91.765625 185.46875 91.714844 C 185.675781 91.644531 186.003906 91.699219 186.28125 91.699219 C 187.398438 91.765625 188.433594 92.035156 189.277344 92.265625 C 190.988281 92.726562 192.007812 92.886719 192.050781 92.695312 Z M 243.730469 272.523438 C 244.199219 271.871094 241.492188 269.28125 237.683594 266.75 C 233.804688 264.484375 230.339844 263.210938 229.945312 263.902344 C 229.53125 264.59375 232.363281 267 236.234375 269.265625 C 239.90625 271.726562 243.269531 273.175781 243.730469 272.523438 Z M 245.457031 267.347656 C 245.910156 266.695312 243.855469 264.378906 240.855469 262.191406 C 237.820312 260.089844 234.976562 258.917969 234.53125 259.582031 C 234.078125 260.257812 236.1875 262.5 239.238281 264.609375 C 242.207031 266.777344 244.996094 268.007812 245.457031 267.347656 Z M 255.183594 129.886719 C 255.476562 129.648438 254.714844 128.242188 253.097656 126.296875 C 251.441406 124.402344 248.835938 122.054688 245.753906 119.84375 C 242.664062 117.65625 239.804688 115.863281 237.71875 114.621094 C 235.613281 113.324219 234.21875 112.632812 233.964844 112.960938 C 233.71875 113.277344 234.644531 114.519531 236.464844 116.238281 C 238.304688 117.949219 241.007812 120.050781 244.0625 122.207031 C 247.082031 124.386719 249.734375 126.347656 251.679688 127.800781 C 253.597656 129.28125 254.871094 130.160156 255.183594 129.886719 Z M 226.996094 259.914062 C 270.484375 237.890625 275.207031 181.273438 253.875 142.273438 C 223.207031 89.503906 141.960938 102.804688 114.738281 152.015625 C 98.171875 181.996094 107.761719 220.898438 130.890625 244.480469 C 155.078125 269.109375 196.414062 275.386719 226.996094 259.914062 Z M 255.507812 122.34375 C 256.042969 121.777344 253.695312 118.777344 249.957031 116.015625 C 246.0625 113.238281 242.550781 112.203125 242.152344 112.855469 C 241.722656 113.570312 244.773438 115.863281 248.269531 118.378906 C 251.835938 121.003906 254.960938 122.949219 255.507812 122.34375 Z M 292.035156 94.078125 C 292.121094 91.964844 292.089844 89.574219 292.019531 86.988281 L 292.003906 85.898438 L 290.863281 85.707031 C 288.695312 85.347656 286.417969 85.03125 283.957031 85.03125 C 283.074219 85.015625 282.148438 85.15625 281.265625 85.222656 C 280.453125 85.347656 279.679688 85.46875 278.902344 85.585938 C 278.382812 85.707031 277.847656 85.675781 277.371094 86.035156 C 277.148438 86.191406 276.863281 86.367188 276.679688 86.503906 L 276.226562 86.828125 C 275.621094 87.28125 275.039062 87.722656 274.457031 88.160156 C 272.125 89.917969 270.164062 91.574219 268.371094 92.503906 C 266.5625 93.484375 264.890625 93.992188 263.730469 94.40625 C 262.574219 94.78125 261.9375 95.074219 261.976562 95.28125 C 262.007812 95.488281 262.699219 95.558594 263.953125 95.503906 C 265.195312 95.441406 267.042969 95.226562 269.230469 94.382812 C 271.453125 93.523438 273.644531 91.9375 276.019531 90.347656 C 276.628906 89.933594 277.246094 89.503906 277.867188 89.074219 L 278.351562 88.746094 C 278.46875 88.675781 278.542969 88.644531 278.628906 88.574219 C 278.742188 88.382812 279.074219 88.46875 279.316406 88.414062 C 280.109375 88.300781 280.90625 88.191406 281.710938 88.078125 C 282.453125 88.054688 283.160156 87.929688 283.957031 87.953125 C 285.78125 87.953125 287.589844 88.140625 289.316406 88.347656 C 289.589844 92.78125 289.691406 96.816406 290.15625 99.753906 C 290.761719 102.835938 291.398438 104.601562 291.714844 104.546875 C 292.050781 104.507812 292.019531 102.613281 291.898438 99.507812 C 291.984375 97.957031 291.9375 96.214844 292.035156 94.078125 Z M 294.191406 143.753906 C 294.273438 143.101562 294.257812 142.957031 294.273438 142.414062 C 294.257812 141.890625 294.214844 141.355469 294.050781 140.800781 C 293.882812 140.234375 293.554688 139.597656 293.054688 139.144531 C 292.574219 138.699219 292.035156 138.421875 291.589844 138.269531 C 290.695312 137.925781 290.003906 137.785156 289.398438 137.542969 C 288.792969 137.335938 288.25 137.027344 287.835938 136.71875 C 287.28125 136.269531 286.714844 135.839844 286.179688 135.410156 C 284.261719 133.804688 282.867188 131.902344 282.191406 130.09375 C 281.472656 128.296875 281.140625 126.664062 280.921875 125.519531 C 280.714844 124.386719 280.492188 123.75 280.300781 123.75 C 280.09375 123.75 279.921875 124.402344 279.777344 125.589844 C 279.679688 126.800781 279.695312 128.574219 280.246094 130.769531 C 280.78125 132.96875 282.214844 135.410156 284.453125 137.472656 C 284.992188 137.957031 285.519531 138.394531 286.070312 138.867188 C 286.800781 139.460938 287.550781 139.875 288.363281 140.203125 C 289.160156 140.527344 289.972656 140.734375 290.519531 140.964844 C 291.109375 141.214844 291.125 141.269531 291.261719 141.628906 C 291.523438 142.304688 291.261719 144.546875 290.917969 144.683594 C 290.917969 144.777344 290.710938 144.84375 290.554688 144.945312 C 290.210938 145.042969 289.882812 145.167969 289.558594 145.273438 C 288.902344 145.425781 287.644531 146.101562 287.296875 146.464844 L 286.882812 146.792969 L 286.832031 146.824219 L 286.714844 146.929688 L 286.691406 146.945312 L 286.675781 146.960938 L 286.59375 147.070312 L 286.402344 147.253906 C 286.179688 147.515625 285.933594 147.773438 285.710938 148.035156 C 285.242188 148.535156 284.816406 149.03125 284.386719 149.5 C 283.640625 150.535156 282.96875 151.503906 282.332031 152.394531 C 281.25 154.328125 280.4375 155.867188 280.160156 157.003906 C 279.800781 158.140625 279.679688 158.796875 279.855469 158.882812 C 280.039062 158.992188 280.492188 158.484375 281.171875 157.503906 C 281.800781 156.480469 282.828125 155.175781 284 153.589844 C 284.675781 152.832031 285.421875 151.988281 286.195312 151.089844 C 286.625 150.691406 287.074219 150.261719 287.535156 149.824219 C 287.765625 149.601562 287.988281 149.378906 288.226562 149.15625 L 288.472656 148.910156 L 288.886719 148.617188 L 289.316406 148.3125 C 289.453125 148.21875 289.535156 148.234375 289.644531 148.1875 L 289.949219 148.050781 L 290.402344 147.929688 C 290.761719 147.804688 291.125 147.707031 291.5 147.597656 C 292.003906 147.375 292.519531 147.183594 292.988281 146.65625 L 293.316406 146.308594 L 293.515625 145.925781 C 293.660156 145.664062 293.777344 145.414062 293.882812 145.152344 C 294.023438 144.667969 294.089844 144.238281 294.191406 143.753906 Z M 294.074219 238.972656 C 294.558594 237.214844 294.488281 235.527344 294.488281 233.898438 C 294.464844 233.195312 294.464844 232.472656 294.449219 231.78125 L 294.4375 230.609375 L 293.292969 230.347656 C 291.953125 230.058594 290.65625 229.671875 289.523438 229.160156 C 288.402344 228.605469 287.414062 227.933594 286.609375 227.15625 C 284.992188 225.609375 284.125 223.660156 283.609375 221.933594 C 282.644531 218.441406 282.675781 216.035156 282.230469 216.035156 C 281.933594 216.011719 281.15625 218.328125 281.695312 222.363281 C 281.984375 224.339844 282.796875 226.828125 284.746094 228.96875 C 285.710938 230.019531 286.914062 230.929688 288.28125 231.660156 C 289.316406 232.175781 290.417969 232.558594 291.554688 232.863281 C 291.570312 233.234375 291.570312 233.578125 291.570312 233.9375 C 291.589844 235.558594 291.621094 237.046875 291.316406 238.25 C 291.140625 238.902344 291 239.300781 290.65625 239.882812 L 290.171875 240.667969 C 289.949219 240.886719 289.796875 241.125 289.558594 241.316406 C 287.796875 243.011719 285.382812 244.09375 283.679688 245.613281 C 281.871094 247.117188 281.058594 249.027344 280.921875 250.308594 C 280.820312 250.976562 280.867188 251.429688 280.921875 251.757812 C 280.972656 252.066406 281.058594 252.242188 281.15625 252.257812 C 281.695312 252.378906 281.640625 249.359375 284.9375 247.253906 C 286.523438 246.113281 288.917969 245.339844 291.371094 243.304688 C 291.675781 243.058594 291.953125 242.730469 292.242188 242.4375 L 292.296875 242.382812 L 292.335938 242.355469 L 292.433594 242.214844 L 292.519531 242.09375 L 292.679688 241.871094 L 292.988281 241.425781 C 293.417969 240.78125 293.859375 239.785156 294.074219 238.972656 Z M 294.933594 294.273438 C 295.363281 290.691406 295.085938 287.84375 294.917969 285.894531 C 294.726562 283.960938 294.503906 282.875 294.296875 282.875 C 294.089844 282.875 293.882812 283.960938 293.730469 285.910156 C 293.539062 287.667969 293.445312 290.191406 292.933594 293.082031 C 290.144531 293.328125 286.882812 293.636719 283.679688 293.3125 C 283.296875 293.222656 283.003906 293.261719 282.523438 293.097656 L 281.832031 292.847656 L 281.710938 292.808594 L 281.695312 292.792969 L 281.640625 292.753906 L 280.882812 292.292969 C 280.75 292.1875 280.644531 292.046875 280.507812 291.933594 C 280.214844 291.703125 280.09375 291.34375 279.886719 291.035156 C 279.554688 290.292969 279.25 289.226562 278.835938 288.136719 C 278.613281 287.582031 278.3125 286.960938 278.039062 286.425781 C 277.730469 285.941406 277.507812 285.566406 277.109375 285 C 275.507812 282.71875 273.300781 281.378906 271.183594 280.371094 C 269.023438 279.351562 266.867188 278.714844 264.78125 278.316406 C 260.597656 277.527344 256.734375 277.582031 253.558594 278.203125 C 250.394531 278.800781 247.992188 280.042969 246.582031 281.285156 C 245.824219 281.875 245.496094 282.445312 245.234375 282.820312 C 244.972656 283.21875 244.875 283.441406 244.957031 283.527344 C 245.027344 283.59375 245.257812 283.496094 245.648438 283.234375 C 246.03125 282.996094 246.558594 282.488281 247.289062 282.183594 C 248.644531 281.394531 250.9375 280.527344 253.890625 280.234375 C 256.816406 279.90625 260.40625 280.066406 264.214844 280.941406 C 266.125 281.378906 268.078125 282.007812 269.941406 282.925781 C 271.78125 283.839844 273.613281 285.042969 274.726562 286.648438 C 274.957031 286.976562 275.300781 287.546875 275.578125 287.980469 C 275.785156 288.410156 275.953125 288.773438 276.144531 289.203125 C 276.519531 290.121094 276.78125 291.121094 277.316406 292.277344 C 277.882812 293.414062 278.917969 294.535156 280.007812 295.03125 L 280.40625 295.253906 L 280.492188 295.308594 L 280.535156 295.332031 L 280.558594 295.347656 L 280.699219 295.402344 L 280.714844 295.414062 L 280.90625 295.46875 L 281.609375 295.691406 C 282.070312 295.84375 282.769531 295.914062 283.3125 296 C 287.535156 296.273438 290.96875 295.636719 294.007812 295.15625 L 294.828125 295.015625 Z M 296.589844 189.757812 C 297.363281 188.140625 297.105469 186.46875 296.78125 185.019531 L 296.550781 184.105469 L 295.457031 183.960938 L 294.828125 183.875 C 292.28125 183.761719 290.128906 182.964844 288.433594 181.828125 C 288.019531 181.511719 287.628906 181.207031 287.246094 180.914062 C 286.898438 180.53125 286.570312 180.171875 286.261719 179.808594 C 285.589844 179.136719 285.160156 178.292969 284.621094 177.632812 C 282.828125 174.714844 281.777344 172.738281 281.363281 172.90625 C 281.035156 173.042969 281.386719 175.238281 282.828125 178.613281 C 283.28125 179.425781 283.640625 180.378906 284.347656 181.273438 C 284.691406 181.734375 285.035156 182.203125 285.40625 182.6875 C 285.847656 183.117188 286.332031 183.53125 286.816406 183.960938 C 288.761719 185.503906 291.4375 186.5 294.144531 186.722656 C 294.242188 187.449219 294.242188 188.085938 294.023438 188.554688 C 293.761719 189.207031 293.003906 189.796875 292.089844 190.296875 C 290.28125 191.277344 288.195312 192.105469 286.761719 193.378906 C 285.257812 194.609375 284.644531 196.179688 284.414062 197.207031 C 284.347656 198.175781 284.402344 198.726562 284.609375 198.78125 C 284.800781 198.835938 285.089844 198.367188 285.488281 197.484375 C 286.003906 196.792969 286.648438 195.78125 287.964844 195.007812 C 289.261719 194.15625 291.070312 193.65625 293.292969 192.636719 C 294.367188 192.136719 295.777344 191.378906 296.589844 189.757812 Z M 300.332031 276.183594 C 300.332031 283.617188 300.332031 292.046875 300.332031 299.519531 C 291.398438 299.726562 282.453125 300.308594 273.628906 298.777344 C 272.457031 290.535156 269.851562 283.257812 259.746094 283.6875 C 251.199219 284.046875 245.355469 292.308594 243.632812 300.125 C 238.050781 300.125 232.445312 300.125 226.859375 300.125 C 226.664062 292.722656 223.707031 285.582031 214.789062 285.375 C 206.671875 285.183594 200.929688 291.21875 199.382812 298.675781 C 192.878906 298.96875 186.347656 299.136719 179.847656 299.65625 C 178.328125 292.546875 172.695312 287.460938 165.144531 288.152344 C 158.320312 288.757812 153.765625 293.867188 152.148438 300.058594 C 145.195312 299.328125 138.25 298.96875 131.265625 298.867188 C 128.765625 282.957031 108.773438 287.429688 105.1875 300.125 C 97.480469 300.125 88.464844 300.125 79.296875 300.125 C 79.695312 291.566406 80.070312 283.027344 80.453125 274.472656 C 88.121094 273.039062 93.640625 267.554688 92.675781 259.191406 C 91.792969 251.636719 85.980469 245.859375 78.746094 244.714844 C 78.46875 239.539062 78.398438 233.914062 78.386719 229.367188 C 78.605469 229.367188 78.828125 229.367188 79.074219 229.3125 C 97 225.378906 95.640625 201.820312 78.730469 198.265625 C 78.164062 192.796875 78.300781 187.328125 78.371094 181.84375 C 86.265625 180.683594 93.28125 174.992188 92.015625 166.316406 C 90.910156 158.589844 84.28125 153.910156 76.964844 153.496094 C 76.550781 150.484375 76.125 147.5 75.917969 144.460938 C 75.539062 138.410156 80.003906 138.546875 83.964844 136.460938 C 88.828125 133.867188 92.550781 128.988281 93.1875 123.378906 C 94.414062 112.824219 87.054688 105.890625 77.378906 104.90625 C 76.8125 96.386719 76.835938 87.917969 77.378906 79.394531 C 87.054688 77.875 97.433594 75.082031 106.925781 77.828125 C 107.707031 85.222656 113.382812 90.363281 121.238281 89.902344 C 127.839844 89.503906 132.976562 85.015625 133.558594 78.878906 C 139.09375 78.808594 144.628906 78.632812 150.179688 78.808594 C 150.648438 86.695312 155.714844 93.164062 164.246094 93.164062 C 172.265625 93.148438 177.503906 86.726562 178.730469 79.5 C 184.15625 80 189.589844 79.777344 195.019531 79.433594 C 195.65625 87.761719 201.535156 93.96875 210.414062 93.855469 C 219.414062 93.730469 225.324219 86.550781 226.605469 78.34375 C 232.84375 79.347656 239.132812 79.929688 245.480469 79.945312 C 245.632812 82.777344 246.03125 85.800781 247.886719 87.917969 C 250.546875 90.914062 254.632812 91.675781 258.472656 91.574219 C 265.695312 91.367188 272.195312 86.550781 274.003906 79.761719 C 282.214844 79.738281 290.402344 79.617188 298.589844 78.910156 C 297.640625 88.675781 298.484375 98.441406 298.414062 108.238281 C 291.15625 109.550781 287.644531 116.085938 288.308594 123.519531 C 288.847656 129.386719 292.242188 136.214844 298.207031 137.082031 C 298.277344 142.289062 298.5 147.484375 298.574219 152.691406 C 291.222656 153.273438 285.796875 158.523438 285.957031 166.421875 C 286.109375 174.300781 292.160156 180.085938 299.519531 180.976562 C 299.65625 187.035156 299.972656 193.089844 299.742188 199.140625 C 284.195312 202.402344 281.089844 224.257812 298.644531 225.652344 C 299.792969 232.160156 299.847656 238.832031 299.257812 245.40625 C 290.351562 247.148438 284.707031 253.753906 286.125 263.34375 C 287.214844 270.691406 293.316406 276.144531 300.332031 276.183594 " fill-opacity="1" fill-rule="nonzero"/><path fill="#ffff00" d="M 122.152344 172.945312 C 125.65625 162.105469 130.820312 154.003906 129.964844 153.496094 C 129.617188 153.289062 128.078125 155.140625 125.894531 158.332031 C 123.859375 161.605469 121.117188 166.316406 119.375 172.09375 C 117.636719 177.878906 117.34375 183.339844 117.304688 187.21875 C 117.445312 191.070312 117.773438 193.449219 118.171875 193.472656 C 118.578125 193.472656 118.976562 191.101562 119.375 187.296875 C 119.914062 183.570312 120.519531 178.390625 122.152344 172.945312 Z M 136.855469 145.84375 C 138.6875 143.824219 139.699219 141.722656 139.148438 141.132812 C 138.597656 140.5625 136.542969 141.835938 134.601562 144.015625 C 132.839844 146.203125 131.910156 148.394531 132.546875 148.894531 C 133.167969 149.417969 135.101562 148.035156 136.855469 145.84375 Z M 163.351562 207.234375 C 172.386719 209.71875 177.125 150.691406 169.039062 141.285156 C 168.832031 140.925781 168.5 140.59375 168.042969 140.339844 C 155.230469 133.714844 154.902344 159.449219 155.023438 166.59375 C 155.199219 175.128906 155.523438 183.761719 156.804688 192.207031 C 157.410156 196.3125 158.128906 205.785156 163.351562 207.234375 Z M 212.429688 156.574219 C 212.789062 152.792969 213.121094 146.699219 209.242188 144.429688 C 204.761719 141.808594 198.222656 146.722656 195.96875 150.328125 C 191.777344 157.035156 192.144531 164.558594 192.660156 172.183594 C 193.085938 178.304688 192.589844 184.34375 192.671875 190.449219 C 192.828125 198.957031 196.980469 209.476562 205.332031 199.609375 C 205.382812 199.539062 205.414062 199.472656 205.46875 199.417969 C 205.554688 199.316406 205.652344 199.210938 205.746094 199.074219 C 213.226562 187.84375 211.203125 169.59375 212.429688 156.574219 Z M 231.457031 243.597656 C 235.359375 240.40625 237.375 238.003906 237.113281 237.726562 C 236.839844 237.421875 234.355469 239.246094 230.238281 241.941406 C 228.207031 243.320312 225.683594 244.800781 222.894531 246.402344 C 220.050781 247.945312 216.875 249.535156 213.449219 250.929688 C 210 252.289062 206.617188 253.292969 203.5 254 C 201.933594 254.257812 200.445312 254.605469 199.035156 254.703125 C 198.332031 254.789062 197.65625 254.859375 196.996094 254.949219 C 196.347656 254.964844 195.710938 254.980469 195.105469 255.011719 C 190.34375 255.148438 187.191406 254.511719 187.125 254.980469 C 187.070312 255.296875 189.859375 256.652344 195.050781 257.066406 C 195.695312 257.105469 196.359375 257.136719 197.074219 257.191406 C 197.765625 257.191406 198.484375 257.136719 199.242188 257.121094 C 200.746094 257.121094 202.332031 256.84375 203.996094 256.636719 C 207.332031 256.03125 210.910156 255.050781 214.53125 253.636719 C 218.117188 252.164062 221.375 250.445312 224.234375 248.722656 C 227.066406 246.941406 229.53125 245.214844 231.457031 243.597656 Z M 237.03125 210.25 C 239.804688 202.164062 241.613281 194 237.101562 186.238281 C 236.425781 185.089844 234.722656 184.496094 233.566406 185.308594 C 228.304688 188.945312 226.925781 194.277344 225.21875 200.191406 C 222.3125 210.355469 219.34375 218.824219 210.414062 225.238281 C 192.421875 238.195312 170.417969 234.644531 155.882812 218.648438 C 150.042969 212.222656 147.375 203.683594 144.738281 195.605469 C 143.6875 192.382812 145.496094 184.757812 141.042969 183.253906 C 133.152344 180.585938 129.359375 186.636719 130.445312 193.933594 C 133.789062 216.464844 149.007812 238.304688 171.125 245.128906 C 183.902344 249.097656 199.6875 245.921875 211.554688 240.445312 C 224.191406 234.605469 232.0625 222.792969 237.03125 210.25 Z M 244.597656 152.929688 C 244.957031 152.792969 244.859375 151.519531 244.253906 149.570312 C 243.59375 147.667969 242.34375 145.082031 240.320312 142.664062 C 238.273438 140.289062 235.980469 138.628906 234.253906 137.578125 C 232.515625 136.613281 231.320312 136.214844 231.082031 136.542969 C 230.835938 136.875 231.632812 137.855469 233.027344 139.238281 C 234.339844 140.632812 236.257812 142.414062 238.097656 144.570312 C 241.738281 148.878906 243.769531 153.246094 244.597656 152.929688 Z M 249.390625 144.890625 C 266.992188 177.011719 266.507812 218.328125 239.132812 244.921875 C 210.054688 273.199219 159.96875 266.710938 132.945312 239.179688 C 105.984375 211.722656 104.433594 166.054688 131.289062 138.410156 C 152.578125 116.5 187.46875 107.667969 216.429688 117.257812 C 230.582031 121.953125 241.976562 132.09375 249.390625 144.890625 " fill-opacity="1" fill-rule="nonzero"/><path fill="#333333" d="M 233.980469 191.882812 C 235.75 197.46875 233.964844 203.285156 232.046875 208.867188 C 226.664062 222.460938 217.8125 232.972656 203.859375 238.058594 C 189.015625 243.488281 172.796875 242.644531 159.492188 233.953125 C 150.492188 228.054688 145.355469 219.394531 141.027344 209.925781 C 139.078125 205.664062 137.460938 201.25 136.234375 196.726562 C 135.722656 194.777344 135.421875 192.8125 135.375 190.796875 C 135.285156 187.636719 138.980469 186.253906 138.6875 190.175781 C 137.988281 199.503906 144.929688 213.394531 150.746094 220.515625 C 159.058594 230.640625 169.644531 237.046875 182.730469 238.457031 C 195.488281 239.835938 208.257812 233.898438 217.855469 225.984375 C 221.804688 222.738281 224.734375 217.820312 226.527344 213.09375 C 228.773438 207.234375 229.6875 197.246094 233.980469 191.882812 " fill-opacity="1" fill-rule="nonzero"/><path fill="#333333" d="M 207.085938 149.875 C 207.792969 151.863281 207.394531 154.519531 207.261719 156.574219 C 207.015625 160.085938 206.382812 163.59375 206.136719 167.105469 C 205.484375 176.390625 206.65625 188.117188 201.414062 196.25 C 197.863281 200.230469 198.15625 195.867188 197.917969 191.914062 C 197.710938 188.832031 197.847656 185.726562 197.988281 182.632812 C 198.414062 173.542969 195.503906 163.234375 199.34375 154.671875 C 199.6875 153.898438 205.882812 146.546875 207.085938 149.875 " fill-opacity="1" fill-rule="nonzero"/><path fill="#333333" d="M 165.199219 144.738281 C 170.003906 149.625 167.765625 165.128906 167.519531 170.996094 C 167.128906 180.652344 166.46875 190.824219 163.816406 200.191406 C 163.019531 198.296875 162.683594 196.074219 162.300781 194.125 C 161.097656 187.863281 160.78125 181.359375 160.476562 174.992188 C 160.367188 172.683594 159.691406 142.679688 165.199219 144.738281 " fill-opacity="1" fill-rule="nonzero"/><g clip-path="url(#14c4e28227)"><path fill="#000000" d="M 300.332031 299.519531 C 300.332031 292.046875 300.332031 283.617188 300.332031 276.183594 C 293.316406 276.144531 287.214844 270.691406 286.125 263.34375 C 284.707031 253.753906 290.351562 247.148438 299.257812 245.40625 C 299.847656 238.832031 299.792969 232.160156 298.644531 225.652344 C 281.089844 224.257812 284.195312 202.402344 299.742188 199.140625 C 299.972656 193.089844 299.65625 187.035156 299.519531 180.976562 C 292.160156 180.085938 286.109375 174.300781 285.957031 166.421875 C 285.796875 158.523438 291.222656 153.273438 298.574219 152.691406 C 298.5 147.484375 298.277344 142.289062 298.207031 137.082031 C 292.242188 136.214844 288.847656 129.386719 288.308594 123.519531 C 287.644531 116.085938 291.15625 109.550781 298.414062 108.238281 C 298.484375 98.441406 297.640625 88.675781 298.589844 78.910156 C 290.402344 79.617188 282.214844 79.738281 274.003906 79.761719 C 272.195312 86.550781 265.695312 91.367188 258.472656 91.574219 C 254.632812 91.675781 250.546875 90.914062 247.886719 87.917969 C 246.03125 85.800781 245.632812 82.777344 245.480469 79.945312 C 239.132812 79.929688 232.84375 79.347656 226.605469 78.34375 C 225.324219 86.550781 219.414062 93.730469 210.414062 93.855469 C 201.535156 93.96875 195.65625 87.761719 195.019531 79.433594 C 189.589844 79.777344 184.15625 80 178.730469 79.5 C 177.503906 86.726562 172.265625 93.148438 164.246094 93.164062 C 155.714844 93.164062 150.648438 86.695312 150.179688 78.808594 C 144.628906 78.632812 139.09375 78.808594 133.558594 78.878906 C 132.976562 85.015625 127.839844 89.503906 121.238281 89.902344 C 113.382812 90.363281 107.707031 85.222656 106.925781 77.828125 C 97.433594 75.082031 87.054688 77.875 77.378906 79.394531 C 76.835938 87.917969 76.8125 96.386719 77.378906 104.90625 C 87.054688 105.890625 94.414062 112.824219 93.1875 123.378906 C 92.550781 128.988281 88.828125 133.867188 83.964844 136.460938 C 80.003906 138.546875 75.539062 138.410156 75.917969 144.460938 C 76.125 147.5 76.550781 150.484375 76.964844 153.496094 C 84.28125 153.910156 90.910156 158.589844 92.015625 166.316406 C 93.28125 174.992188 86.265625 180.683594 78.371094 181.84375 C 78.300781 187.328125 78.164062 192.796875 78.730469 198.265625 C 95.640625 201.820312 97 225.378906 79.074219 229.3125 C 78.828125 229.367188 78.605469 229.367188 78.386719 229.367188 C 78.398438 233.914062 78.46875 239.539062 78.746094 244.714844 C 85.980469 245.859375 91.792969 251.636719 92.675781 259.191406 C 93.640625 267.554688 88.121094 273.039062 80.453125 274.472656 C 80.070312 283.027344 79.695312 291.566406 79.296875 300.125 C 88.464844 300.125 97.480469 300.125 105.1875 300.125 C 108.773438 287.429688 128.765625 282.957031 131.265625 298.867188 C 138.25 298.96875 145.195312 299.328125 152.148438 300.058594 C 153.765625 293.867188 158.320312 288.757812 165.144531 288.152344 C 172.695312 287.460938 178.328125 292.546875 179.847656 299.65625 C 186.347656 299.136719 192.878906 298.96875 199.382812 298.675781 C 200.929688 291.21875 206.671875 285.183594 214.789062 285.375 C 223.707031 285.582031 226.664062 292.722656 226.859375 300.125 C 232.445312 300.125 238.050781 300.125 243.632812 300.125 C 245.355469 292.308594 251.199219 284.046875 259.746094 283.6875 C 269.851562 283.257812 272.457031 290.535156 273.628906 298.777344 C 282.453125 300.308594 291.398438 299.726562 300.332031 299.519531 Z M 302.882812 270.675781 C 305.535156 269.917969 306.917969 273.199219 305.503906 274.871094 C 305.503906 282.773438 305.503906 297.902344 305.503906 301.191406 C 305.949219 302.695312 305.175781 304.644531 303.121094 304.644531 C 292.210938 304.742188 281.335938 305.710938 270.554688 303.484375 C 269.046875 303.15625 268.523438 301.921875 268.746094 300.738281 C 268.714844 300.609375 268.675781 300.488281 268.644531 300.324219 C 267.941406 294.464844 266.269531 286.132812 257.992188 289.269531 C 252.59375 291.328125 249.027344 296.867188 248.40625 302.503906 C 248.285156 303.5 247.71875 304.214844 246.996094 304.589844 C 246.558594 305.019531 245.960938 305.296875 245.164062 305.296875 C 238.273438 305.296875 224.480469 305.296875 224.480469 305.296875 C 223.046875 305.296875 222.234375 304.414062 221.980469 303.386719 C 221.773438 303.027344 221.652344 302.589844 221.691406 302.058594 C 221.859375 296.988281 221.707031 291.519531 215.3125 290.621094 C 209.242188 289.777344 204.777344 295.171875 204.226562 300.777344 C 204.105469 301.9375 203.375 302.695312 202.5 303.042969 C 202.085938 303.457031 201.519531 303.746094 200.777344 303.777344 C 192.726562 304.191406 184.675781 304.285156 176.644531 305.089844 C 174.144531 305.335938 173.539062 302.449219 174.8125 300.886719 C 172.210938 290.070312 158.167969 291.671875 156.820312 302.710938 C 156.625 304.285156 155.339844 305.113281 154.074219 305.160156 C 153.753906 305.28125 153.390625 305.351562 152.9375 305.296875 C 144.90625 304.4375 136.871094 304.039062 128.804688 304.007812 C 126.84375 304.007812 126.046875 302.191406 126.390625 300.710938 C 126.375 300.609375 126.320312 300.5 126.308594 300.378906 C 124.550781 288.511719 111.035156 294.378906 109.753906 303.402344 C 109.503906 305.160156 107.960938 305.574219 106.65625 305.074219 C 106.34375 305.210938 105.960938 305.296875 105.53125 305.296875 C 96.914062 305.296875 76.230469 305.296875 76.230469 305.296875 C 73.792969 305.296875 73.09375 302.726562 74.089844 301.207031 C 74.519531 291.65625 74.933594 282.082031 75.363281 272.523438 C 75.433594 270.921875 76.691406 270.09375 77.933594 270.039062 C 78.300781 269.761719 78.730469 269.570312 79.242188 269.503906 C 92.722656 267.785156 88.007812 249.734375 76.230469 249.671875 C 74.382812 249.648438 73.554688 248.0625 73.761719 246.648438 C 73.691406 246.441406 73.664062 246.234375 73.648438 245.996094 C 73.265625 239.824219 73.210938 227.679688 73.210938 227.679688 C 73.210938 225.722656 74.867188 224.878906 76.316406 225.140625 C 76.628906 224.761719 77.074219 224.449219 77.695312 224.3125 C 91.417969 221.3125 88.949219 204.804688 75.96875 203.007812 C 74.46875 202.800781 73.953125 201.640625 74.136719 200.492188 C 73.882812 200.148438 73.691406 199.71875 73.648438 199.210938 C 72.863281 192.621094 73.179688 186 73.210938 179.371094 C 73.210938 177.410156 75.019531 176.617188 76.484375 176.957031 C 76.605469 176.925781 76.714844 176.894531 76.835938 176.871094 C 82.195312 176.136719 88.589844 172.769531 86.78125 166.246094 C 85.207031 160.570312 80.054688 158.261719 74.503906 158.675781 C 72.503906 158.828125 71.730469 157.035156 72.128906 155.523438 C 72.074219 155.363281 72.039062 155.222656 72.007812 155.054688 C 71.195312 149.253906 68.296875 139.460938 74.054688 135.234375 C 79.472656 131.210938 88.503906 130.175781 88.257812 121.386719 C 88.035156 113.652344 82.25 109.925781 74.933594 109.949219 C 73.441406 109.949219 72.449219 108.75 72.351562 107.355469 C 71.554688 97.28125 71.554688 87.242188 72.351562 77.167969 C 72.4375 76.101562 73.027344 75.398438 73.777344 75.011719 C 74.105469 74.789062 74.484375 74.636719 74.933594 74.582031 C 86.171875 73.101562 98.292969 69.390625 109.449219 73.164062 C 109.671875 73.234375 109.863281 73.339844 110.03125 73.449219 C 111.105469 73.671875 112.015625 74.460938 111.992188 75.878906 C 111.949219 81.105469 115.082031 85.085938 120.578125 84.761719 C 124.828125 84.503906 129.234375 81.777344 128.460938 77 C 128.148438 75.042969 129.789062 73.785156 131.265625 73.753906 C 131.390625 73.738281 131.496094 73.714844 131.597656 73.714844 C 138.648438 73.6875 145.6875 73.339844 152.730469 73.714844 C 154.234375 73.808594 155.0625 74.914062 155.199219 76.101562 C 155.269531 76.355469 155.324219 76.640625 155.324219 76.945312 C 155.148438 82.484375 157.839844 88.367188 164.246094 87.984375 C 170.472656 87.585938 173.746094 82.363281 173.828125 76.53125 C 173.867188 74.429688 175.9375 73.648438 177.433594 74.183594 C 183.851562 74.929688 190.257812 74.582031 196.691406 74.152344 C 197.695312 74.085938 198.386719 74.515625 198.777344 75.136719 C 199.566406 75.496094 200.15625 76.242188 200.140625 77.390625 C 199.964844 83.621094 203.605469 89.175781 210.414062 88.675781 C 217.398438 88.160156 221.40625 82.554688 221.691406 75.878906 C 221.722656 74.84375 222.257812 74.117188 222.964844 73.714844 C 223.53125 73.132812 224.375 72.773438 225.378906 72.941406 C 232.699219 74.238281 240.097656 74.945312 247.542969 74.804688 C 248.769531 74.773438 249.566406 75.480469 249.871094 76.378906 C 250.246094 76.769531 250.53125 77.320312 250.546875 78.035156 C 250.785156 83.398438 252.179688 87.058594 258.472656 86.398438 C 263.578125 85.867188 268.832031 82.707031 269.296875 77.167969 C 269.4375 75.566406 270.730469 74.738281 272.003906 74.683594 C 272.234375 74.636719 272.472656 74.582031 272.746094 74.582031 C 282.316406 74.582031 291.882812 74.515625 301.398438 73.496094 C 302.816406 73.355469 303.605469 74.199219 303.8125 75.234375 C 303.980469 75.605469 304.058594 76.011719 303.980469 76.53125 C 302.539062 87.792969 303.828125 99.0625 303.574219 110.378906 C 303.535156 111.742188 302.625 112.546875 301.589844 112.792969 C 301.242188 113 300.828125 113.15625 300.332031 113.171875 C 289.882812 113.707031 292.433594 133.351562 299.863281 132.027344 C 301.257812 131.78125 302.332031 132.578125 302.816406 133.589844 C 303.136719 133.988281 303.34375 134.511719 303.34375 135.179688 C 303.382812 141.652344 303.742188 148.097656 303.78125 154.570312 C 303.78125 155.363281 303.496094 155.953125 303.066406 156.367188 C 302.730469 157.210938 301.964844 157.863281 300.761719 157.808594 C 286.867188 157.195312 289.328125 176.359375 302.054688 175.929688 C 303.742188 175.875 304.570312 177.1875 304.554688 178.5 C 304.609375 178.707031 304.640625 178.929688 304.640625 179.164062 C 304.738281 186.570312 305.3125 193.949219 304.847656 201.367188 C 304.761719 202.855469 303.742188 203.851562 302.261719 203.960938 C 290.585938 204.78125 286.46875 220.875 300.984375 220.566406 C 302.730469 220.515625 303.550781 221.933594 303.464844 223.289062 C 303.464844 223.289062 303.464844 223.3125 303.464844 223.328125 C 305.039062 231.34375 305.105469 239.613281 304.210938 247.714844 C 304.035156 249.273438 302.792969 250.078125 301.574219 250.1875 C 301.382812 250.238281 301.191406 250.285156 300.984375 250.308594 C 294.558594 251.082031 289.535156 255.917969 291.261719 262.730469 C 292.65625 268.246094 296.949219 272.371094 302.882812 270.675781 " fill-opacity="1" fill-rule="nonzero"/></g><path fill="#000000" d="M 296.78125 185.019531 C 297.105469 186.46875 297.363281 188.140625 296.589844 189.757812 C 295.777344 191.378906 294.367188 192.136719 293.292969 192.636719 C 291.070312 193.65625 289.261719 194.15625 287.964844 195.007812 C 286.648438 195.78125 286.003906 196.792969 285.488281 197.484375 C 285.089844 198.367188 284.800781 198.835938 284.609375 198.78125 C 284.402344 198.726562 284.347656 198.175781 284.414062 197.207031 C 284.644531 196.179688 285.257812 194.609375 286.761719 193.378906 C 288.195312 192.105469 290.28125 191.277344 292.089844 190.296875 C 293.003906 189.796875 293.761719 189.207031 294.023438 188.554688 C 294.242188 188.085938 294.242188 187.449219 294.144531 186.722656 C 291.4375 186.5 288.761719 185.503906 286.816406 183.960938 C 286.332031 183.53125 285.847656 183.117188 285.40625 182.6875 C 285.035156 182.203125 284.691406 181.734375 284.347656 181.273438 C 283.640625 180.378906 283.28125 179.425781 282.828125 178.613281 C 281.386719 175.238281 281.035156 173.042969 281.363281 172.90625 C 281.777344 172.738281 282.828125 174.714844 284.621094 177.632812 C 285.160156 178.292969 285.589844 179.136719 286.261719 179.808594 C 286.570312 180.171875 286.898438 180.53125 287.246094 180.914062 C 287.628906 181.207031 288.019531 181.511719 288.433594 181.828125 C 290.128906 182.964844 292.28125 183.761719 294.828125 183.875 L 295.457031 183.960938 L 296.550781 184.105469 L 296.78125 185.019531 " fill-opacity="1" fill-rule="nonzero"/><path fill="#000000" d="M 294.917969 285.894531 C 295.085938 287.84375 295.363281 290.691406 294.933594 294.273438 L 294.828125 295.015625 L 294.007812 295.15625 C 290.96875 295.636719 287.535156 296.273438 283.3125 296 C 282.769531 295.914062 282.070312 295.84375 281.609375 295.691406 L 280.90625 295.46875 L 280.714844 295.414062 L 280.699219 295.402344 L 280.558594 295.347656 L 280.535156 295.332031 L 280.492188 295.308594 L 280.40625 295.253906 L 280.007812 295.03125 C 278.917969 294.535156 277.882812 293.414062 277.316406 292.277344 C 276.78125 291.121094 276.519531 290.121094 276.144531 289.203125 C 275.953125 288.773438 275.785156 288.410156 275.578125 287.980469 C 275.300781 287.546875 274.957031 286.976562 274.726562 286.648438 C 273.613281 285.042969 271.78125 283.839844 269.941406 282.925781 C 268.078125 282.007812 266.125 281.378906 264.214844 280.941406 C 260.40625 280.066406 256.816406 279.90625 253.890625 280.234375 C 250.9375 280.527344 248.644531 281.394531 247.289062 282.183594 C 246.558594 282.488281 246.03125 282.996094 245.648438 283.234375 C 245.257812 283.496094 245.027344 283.59375 244.957031 283.527344 C 244.875 283.441406 244.972656 283.21875 245.234375 282.820312 C 245.496094 282.445312 245.824219 281.875 246.582031 281.285156 C 247.992188 280.042969 250.394531 278.800781 253.558594 278.203125 C 256.734375 277.582031 260.597656 277.527344 264.78125 278.316406 C 266.867188 278.714844 269.023438 279.351562 271.183594 280.371094 C 273.300781 281.378906 275.507812 282.71875 277.109375 285 C 277.507812 285.566406 277.730469 285.941406 278.039062 286.425781 C 278.3125 286.960938 278.613281 287.582031 278.835938 288.136719 C 279.25 289.226562 279.554688 290.292969 279.886719 291.035156 C 280.09375 291.34375 280.214844 291.703125 280.507812 291.933594 C 280.644531 292.046875 280.75 292.1875 280.882812 292.292969 L 281.640625 292.753906 L 281.695312 292.792969 L 281.710938 292.808594 L 281.832031 292.847656 L 282.523438 293.097656 C 283.003906 293.261719 283.296875 293.222656 283.679688 293.3125 C 286.882812 293.636719 290.144531 293.328125 292.933594 293.082031 C 293.445312 290.191406 293.539062 287.667969 293.730469 285.910156 C 293.882812 283.960938 294.089844 282.875 294.296875 282.875 C 294.503906 282.875 294.726562 283.960938 294.917969 285.894531 " fill-opacity="1" fill-rule="nonzero"/><path fill="#000000" d="M 294.488281 233.898438 C 294.488281 235.527344 294.558594 237.214844 294.074219 238.972656 C 293.859375 239.785156 293.417969 240.78125 292.988281 241.425781 L 292.679688 241.871094 L 292.519531 242.09375 L 292.433594 242.214844 L 292.335938 242.355469 L 292.296875 242.382812 L 292.242188 242.4375 C 291.953125 242.730469 291.675781 243.058594 291.371094 243.304688 C 288.917969 245.339844 286.523438 246.113281 284.9375 247.253906 C 281.640625 249.359375 281.695312 252.378906 281.15625 252.257812 C 281.058594 252.242188 280.972656 252.066406 280.921875 251.757812 C 280.867188 251.429688 280.820312 250.976562 280.921875 250.308594 C 281.058594 249.027344 281.871094 247.117188 283.679688 245.613281 C 285.382812 244.09375 287.796875 243.011719 289.558594 241.316406 C 289.796875 241.125 289.949219 240.886719 290.171875 240.667969 L 290.65625 239.882812 C 291 239.300781 291.140625 238.902344 291.316406 238.25 C 291.621094 237.046875 291.589844 235.558594 291.570312 233.9375 C 291.570312 233.578125 291.570312 233.234375 291.554688 232.863281 C 290.417969 232.558594 289.316406 232.175781 288.28125 231.660156 C 286.914062 230.929688 285.710938 230.019531 284.746094 228.96875 C 282.796875 226.828125 281.984375 224.339844 281.695312 222.363281 C 281.15625 218.328125 281.933594 216.011719 282.230469 216.035156 C 282.675781 216.035156 282.644531 218.441406 283.609375 221.933594 C 284.125 223.660156 284.992188 225.609375 286.609375 227.15625 C 287.414062 227.933594 288.402344 228.605469 289.523438 229.160156 C 290.65625 229.671875 291.953125 230.058594 293.292969 230.347656 L 294.4375 230.609375 L 294.449219 231.78125 C 294.464844 232.472656 294.464844 233.195312 294.488281 233.898438 " fill-opacity="1" fill-rule="nonzero"/><path fill="#000000" d="M 294.273438 142.414062 C 294.257812 142.957031 294.273438 143.101562 294.191406 143.753906 C 294.089844 144.238281 294.023438 144.667969 293.882812 145.152344 C 293.777344 145.414062 293.660156 145.664062 293.515625 145.925781 L 293.316406 146.308594 L 292.988281 146.65625 C 292.519531 147.183594 292.003906 147.375 291.5 147.597656 C 291.125 147.707031 290.761719 147.804688 290.402344 147.929688 L 289.949219 148.050781 L 289.644531 148.1875 C 289.535156 148.234375 289.453125 148.21875 289.316406 148.3125 L 288.886719 148.617188 L 288.472656 148.910156 L 288.226562 149.15625 C 287.988281 149.378906 287.765625 149.601562 287.535156 149.824219 C 287.074219 150.261719 286.625 150.691406 286.195312 151.089844 C 285.421875 151.988281 284.675781 152.832031 284 153.589844 C 282.828125 155.175781 281.800781 156.480469 281.171875 157.503906 C 280.492188 158.484375 280.039062 158.992188 279.855469 158.882812 C 279.679688 158.796875 279.800781 158.140625 280.160156 157.003906 C 280.4375 155.867188 281.25 154.328125 282.332031 152.394531 C 282.96875 151.503906 283.640625 150.535156 284.386719 149.5 C 284.816406 149.03125 285.242188 148.535156 285.710938 148.035156 C 285.933594 147.773438 286.179688 147.515625 286.402344 147.253906 L 286.59375 147.070312 L 286.675781 146.960938 L 286.691406 146.945312 L 286.714844 146.929688 L 286.832031 146.824219 L 286.882812 146.792969 L 287.296875 146.464844 C 287.644531 146.101562 288.902344 145.425781 289.558594 145.273438 C 289.882812 145.167969 290.210938 145.042969 290.554688 144.945312 C 290.710938 144.84375 290.917969 144.777344 290.917969 144.683594 C 291.261719 144.546875 291.523438 142.304688 291.261719 141.628906 C 291.125 141.269531 291.109375 141.214844 290.519531 140.964844 C 289.972656 140.734375 289.160156 140.527344 288.363281 140.203125 C 287.550781 139.875 286.800781 139.460938 286.070312 138.867188 C 285.519531 138.394531 284.992188 137.957031 284.453125 137.472656 C 282.214844 135.410156 280.78125 132.96875 280.246094 130.769531 C 279.695312 128.574219 279.679688 126.800781 279.777344 125.589844 C 279.921875 124.402344 280.09375 123.75 280.300781 123.75 C 280.492188 123.75 280.714844 124.386719 280.921875 125.519531 C 281.140625 126.664062 281.472656 128.296875 282.191406 130.09375 C 282.867188 131.902344 284.261719 133.804688 286.179688 135.410156 C 286.714844 135.839844 287.28125 136.269531 287.835938 136.71875 C 288.25 137.027344 288.792969 137.335938 289.398438 137.542969 C 290.003906 137.785156 290.695312 137.925781 291.589844 138.269531 C 292.035156 138.421875 292.574219 138.699219 293.054688 139.144531 C 293.554688 139.597656 293.882812 140.234375 294.050781 140.800781 C 294.214844 141.355469 294.257812 141.890625 294.273438 142.414062 " fill-opacity="1" fill-rule="nonzero"/><path fill="#000000" d="M 292.019531 86.988281 C 292.089844 89.574219 292.121094 91.964844 292.035156 94.078125 C 291.9375 96.214844 291.984375 97.957031 291.898438 99.507812 C 292.019531 102.613281 292.050781 104.507812 291.714844 104.546875 C 291.398438 104.601562 290.761719 102.835938 290.15625 99.753906 C 289.691406 96.816406 289.589844 92.78125 289.316406 88.347656 C 287.589844 88.140625 285.78125 87.953125 283.957031 87.953125 C 283.160156 87.929688 282.453125 88.054688 281.710938 88.078125 C 280.90625 88.191406 280.109375 88.300781 279.316406 88.414062 C 279.074219 88.46875 278.742188 88.382812 278.628906 88.574219 C 278.542969 88.644531 278.46875 88.675781 278.351562 88.746094 L 277.867188 89.074219 C 277.246094 89.503906 276.628906 89.933594 276.019531 90.347656 C 273.644531 91.9375 271.453125 93.523438 269.230469 94.382812 C 267.042969 95.226562 265.195312 95.441406 263.953125 95.503906 C 262.699219 95.558594 262.007812 95.488281 261.976562 95.28125 C 261.9375 95.074219 262.574219 94.78125 263.730469 94.40625 C 264.890625 93.992188 266.5625 93.484375 268.371094 92.503906 C 270.164062 91.574219 272.125 89.917969 274.457031 88.160156 C 275.039062 87.722656 275.621094 87.28125 276.226562 86.828125 L 276.679688 86.503906 C 276.863281 86.367188 277.148438 86.191406 277.371094 86.035156 C 277.847656 85.675781 278.382812 85.707031 278.902344 85.585938 C 279.679688 85.46875 280.453125 85.347656 281.265625 85.222656 C 282.148438 85.15625 283.074219 85.015625 283.957031 85.03125 C 286.417969 85.03125 288.695312 85.347656 290.863281 85.707031 L 292.003906 85.898438 L 292.019531 86.988281 " fill-opacity="1" fill-rule="nonzero"/><path fill="#000000" d="M 249.957031 116.015625 C 253.695312 118.777344 256.042969 121.777344 255.507812 122.34375 C 254.960938 122.949219 251.835938 121.003906 248.269531 118.378906 C 244.773438 115.863281 241.722656 113.570312 242.152344 112.855469 C 242.550781 112.203125 246.0625 113.238281 249.957031 116.015625 " fill-opacity="1" fill-rule="nonzero"/><path fill="#000000" d="M 239.132812 244.921875 C 266.507812 218.328125 266.992188 177.011719 249.390625 144.890625 C 241.976562 132.09375 230.582031 121.953125 216.429688 117.257812 C 187.46875 107.667969 152.578125 116.5 131.289062 138.410156 C 104.433594 166.054688 105.984375 211.722656 132.945312 239.179688 C 159.96875 266.710938 210.054688 273.199219 239.132812 244.921875 Z M 253.875 142.273438 C 275.207031 181.273438 270.484375 237.890625 226.996094 259.914062 C 196.414062 275.386719 155.078125 269.109375 130.890625 244.480469 C 107.761719 220.898438 98.171875 181.996094 114.738281 152.015625 C 141.960938 102.804688 223.207031 89.503906 253.875 142.273438 " fill-opacity="1" fill-rule="nonzero"/><path fill="#000000" d="M 253.097656 126.296875 C 254.714844 128.242188 255.476562 129.648438 255.183594 129.886719 C 254.871094 130.160156 253.597656 129.28125 251.679688 127.800781 C 249.734375 126.347656 247.082031 124.386719 244.0625 122.207031 C 241.007812 120.050781 238.304688 117.949219 236.464844 116.238281 C 234.644531 114.519531 233.71875 113.277344 233.964844 112.960938 C 234.21875 112.632812 235.613281 113.324219 237.71875 114.621094 C 239.804688 115.863281 242.664062 117.65625 245.753906 119.84375 C 248.835938 122.054688 251.441406 124.402344 253.097656 126.296875 " fill-opacity="1" fill-rule="nonzero"/><path fill="#000000" d="M 240.855469 262.191406 C 243.855469 264.378906 245.910156 266.695312 245.457031 267.347656 C 244.996094 268.007812 242.207031 266.777344 239.238281 264.609375 C 236.1875 262.5 234.078125 260.257812 234.53125 259.582031 C 234.976562 258.917969 237.820312 260.089844 240.855469 262.191406 " fill-opacity="1" fill-rule="nonzero"/><path fill="#000000" d="M 244.253906 149.570312 C 244.859375 151.519531 244.957031 152.792969 244.597656 152.929688 C 243.769531 153.246094 241.738281 148.878906 238.097656 144.570312 C 236.257812 142.414062 234.339844 140.632812 233.027344 139.238281 C 231.632812 137.855469 230.835938 136.875 231.082031 136.542969 C 231.320312 136.214844 232.515625 136.613281 234.253906 137.578125 C 235.980469 138.628906 238.273438 140.289062 240.320312 142.664062 C 242.34375 145.082031 243.59375 147.667969 244.253906 149.570312 " fill-opacity="1" fill-rule="nonzero"/><path fill="#000000" d="M 237.683594 266.75 C 241.492188 269.28125 244.199219 271.871094 243.730469 272.523438 C 243.269531 273.175781 239.90625 271.726562 236.234375 269.265625 C 232.363281 267 229.53125 264.59375 229.945312 263.902344 C 230.339844 263.210938 233.804688 264.484375 237.683594 266.75 " fill-opacity="1" fill-rule="nonzero"/><path fill="#000000" d="M 232.046875 208.867188 C 233.964844 203.285156 235.75 197.46875 233.980469 191.882812 C 229.6875 197.246094 228.773438 207.234375 226.527344 213.09375 C 224.734375 217.820312 221.804688 222.738281 217.855469 225.984375 C 208.257812 233.898438 195.488281 239.835938 182.730469 238.457031 C 169.644531 237.046875 159.058594 230.640625 150.746094 220.515625 C 144.929688 213.394531 137.988281 199.503906 138.6875 190.175781 C 138.980469 186.253906 135.285156 187.636719 135.375 190.796875 C 135.421875 192.8125 135.722656 194.777344 136.234375 196.726562 C 137.460938 201.25 139.078125 205.664062 141.027344 209.925781 C 145.355469 219.394531 150.492188 228.054688 159.492188 233.953125 C 172.796875 242.644531 189.015625 243.488281 203.859375 238.058594 C 217.8125 232.972656 226.664062 222.460938 232.046875 208.867188 Z M 237.101562 186.238281 C 241.613281 194 239.804688 202.164062 237.03125 210.25 C 232.0625 222.792969 224.191406 234.605469 211.554688 240.445312 C 199.6875 245.921875 183.902344 249.097656 171.125 245.128906 C 149.007812 238.304688 133.789062 216.464844 130.445312 193.933594 C 129.359375 186.636719 133.152344 180.585938 141.042969 183.253906 C 145.496094 184.757812 143.6875 192.382812 144.738281 195.605469 C 147.375 203.683594 150.042969 212.222656 155.882812 218.648438 C 170.417969 234.644531 192.421875 238.195312 210.414062 225.238281 C 219.34375 218.824219 222.3125 210.355469 225.21875 200.191406 C 226.925781 194.277344 228.304688 188.945312 233.566406 185.308594 C 234.722656 184.496094 236.425781 185.089844 237.101562 186.238281 " fill-opacity="1" fill-rule="nonzero"/><path fill="#000000" d="M 237.113281 237.726562 C 237.375 238.003906 235.359375 240.40625 231.457031 243.597656 C 229.53125 245.214844 227.066406 246.941406 224.234375 248.722656 C 221.375 250.445312 218.117188 252.164062 214.53125 253.636719 C 210.910156 255.050781 207.332031 256.03125 203.996094 256.636719 C 202.332031 256.84375 200.746094 257.121094 199.242188 257.121094 C 198.484375 257.136719 197.765625 257.191406 197.074219 257.191406 C 196.359375 257.136719 195.695312 257.105469 195.050781 257.066406 C 189.859375 256.652344 187.070312 255.296875 187.125 254.980469 C 187.191406 254.511719 190.34375 255.148438 195.105469 255.011719 C 195.710938 254.980469 196.347656 254.964844 196.996094 254.949219 C 197.65625 254.859375 198.332031 254.789062 199.035156 254.703125 C 200.445312 254.605469 201.933594 254.257812 203.5 254 C 206.617188 253.292969 210 252.289062 213.449219 250.929688 C 216.875 249.535156 220.050781 247.945312 222.894531 246.402344 C 225.683594 244.800781 228.207031 243.320312 230.238281 241.941406 C 234.355469 239.246094 236.839844 237.421875 237.113281 237.726562 " fill-opacity="1" fill-rule="nonzero"/><path fill="#000000" d="M 229.257812 87.003906 C 229.257812 87.003906 229.257812 87.019531 229.234375 87.019531 L 229.257812 87.003906 " fill-opacity="1" fill-rule="nonzero"/><path fill="#000000" d="M 207.261719 156.574219 C 207.394531 154.519531 207.792969 151.863281 207.085938 149.875 C 205.882812 146.546875 199.6875 153.898438 199.34375 154.671875 C 195.503906 163.234375 198.414062 173.542969 197.988281 182.632812 C 197.847656 185.726562 197.710938 188.832031 197.917969 191.914062 C 198.15625 195.867188 197.863281 200.230469 201.414062 196.25 C 206.65625 188.117188 205.484375 176.390625 206.136719 167.105469 C 206.382812 163.59375 207.015625 160.085938 207.261719 156.574219 Z M 209.242188 144.429688 C 213.121094 146.699219 212.789062 152.792969 212.429688 156.574219 C 211.203125 169.59375 213.226562 187.84375 205.746094 199.074219 C 205.652344 199.210938 205.554688 199.316406 205.46875 199.417969 C 205.414062 199.472656 205.382812 199.539062 205.332031 199.609375 C 196.980469 209.476562 192.828125 198.957031 192.671875 190.449219 C 192.589844 184.34375 193.085938 178.304688 192.660156 172.183594 C 192.144531 164.558594 191.777344 157.035156 195.96875 150.328125 C 198.222656 146.722656 204.761719 141.808594 209.242188 144.429688 " fill-opacity="1" fill-rule="nonzero"/><path fill="#000000" d="M 189.675781 91.191406 C 191.277344 92.003906 192.105469 92.503906 192.050781 92.695312 C 192.007812 92.886719 190.988281 92.726562 189.277344 92.265625 C 188.433594 92.035156 187.398438 91.765625 186.28125 91.699219 C 186.003906 91.699219 185.675781 91.644531 185.46875 91.714844 C 185.230469 91.765625 185.054688 91.675781 184.675781 91.851562 L 184.179688 92.058594 L 184.085938 92.128906 L 183.917969 92.265625 C 183.671875 92.433594 183.421875 92.59375 183.199219 92.886719 C 182.230469 93.898438 181.335938 95.351562 180.230469 96.898438 C 179.933594 97.296875 179.625 97.695312 179.335938 98.097656 C 178.964844 98.511719 178.558594 98.941406 178.144531 99.355469 L 177.570312 99.835938 L 177.28125 100.074219 L 177.125 100.199219 L 176.988281 100.28125 L 176.957031 100.320312 L 176.867188 100.375 C 176.398438 100.652344 175.914062 100.925781 175.441406 101.203125 C 171.484375 103.335938 166.453125 104.203125 161.402344 103.621094 C 158.667969 103.265625 156.128906 102.269531 153.9375 100.988281 C 151.765625 99.714844 149.871094 98.097656 148.300781 96.453125 C 143.496094 91.507812 140.941406 91.453125 135.128906 95.402344 C 133.804688 96.300781 133.03125 96.730469 132.90625 96.578125 C 132.769531 96.4375 133.320312 95.734375 134.425781 94.574219 C 137.769531 91.109375 140.058594 88.84375 145.128906 90.363281 L 145.234375 90.386719 L 145.472656 90.484375 L 145.632812 90.554688 L 145.957031 90.707031 C 146.175781 90.816406 146.390625 90.898438 146.644531 91.039062 C 146.9375 91.230469 147.234375 91.453125 147.511719 91.675781 C 147.789062 91.921875 147.925781 92.113281 148.132812 92.335938 C 148.875 93.195312 149.40625 93.816406 150.234375 94.605469 C 153.144531 97.460938 157.125 100.144531 161.777344 100.734375 C 166.316406 101.234375 170.710938 100.558594 174.214844 98.816406 C 174.640625 98.59375 175.054688 98.347656 175.46875 98.125 L 175.554688 98.097656 C 175.59375 98.082031 175.691406 98.011719 175.691406 98.011719 L 175.984375 97.765625 L 176.589844 97.335938 C 176.882812 97.046875 177.164062 96.746094 177.433594 96.46875 C 177.722656 96.125 178.023438 95.785156 178.316406 95.441406 C 179.433594 94.046875 180.453125 92.574219 181.796875 91.382812 C 182.09375 91.078125 182.484375 90.832031 182.882812 90.59375 L 183.175781 90.417969 L 183.3125 90.332031 L 183.449219 90.277344 C 183.503906 90.261719 183.574219 90.25 183.574219 90.25 L 184.085938 90.101562 C 184.378906 89.988281 184.9375 89.988281 185.34375 89.972656 C 185.8125 89.933594 186.125 90.042969 186.488281 90.085938 C 187.851562 90.347656 188.863281 90.816406 189.675781 91.191406 " fill-opacity="1" fill-rule="nonzero"/><path fill="#000000" d="M 167.519531 170.996094 C 167.765625 165.128906 170.003906 149.625 165.199219 144.738281 C 159.691406 142.679688 160.367188 172.683594 160.476562 174.992188 C 160.78125 181.359375 161.097656 187.863281 162.300781 194.125 C 162.683594 196.074219 163.019531 198.296875 163.816406 200.191406 C 166.46875 190.824219 167.128906 180.652344 167.519531 170.996094 Z M 169.039062 141.285156 C 177.125 150.691406 172.386719 209.71875 163.351562 207.234375 C 158.128906 205.785156 157.410156 196.3125 156.804688 192.207031 C 155.523438 183.761719 155.199219 175.128906 155.023438 166.59375 C 154.902344 159.449219 155.230469 133.714844 168.042969 140.339844 C 168.5 140.59375 168.832031 140.925781 169.039062 141.285156 " fill-opacity="1" fill-rule="nonzero"/><path fill="#000000" d="M 143.109375 283.5625 C 145.734375 285.910156 147.167969 288.359375 146.613281 288.910156 C 146.046875 289.492188 143.664062 287.96875 141.21875 285.789062 C 138.910156 283.769531 136.648438 281.851562 137.132812 281.148438 C 137.5625 280.550781 140.234375 281.148438 143.109375 283.5625 " fill-opacity="1" fill-rule="nonzero"/><path fill="#000000" d="M 138.980469 286.976562 C 142.460938 289.515625 144.851562 292.363281 144.324219 292.929688 C 143.746094 293.535156 140.75 291.878906 137.214844 289.292969 C 133.476562 286.480469 131.75 283.410156 132.253906 282.875 C 132.839844 282.238281 135.722656 284.585938 138.980469 286.976562 " fill-opacity="1" fill-rule="nonzero"/><path fill="#000000" d="M 139.148438 141.132812 C 139.699219 141.722656 138.6875 143.824219 136.855469 145.84375 C 135.101562 148.035156 133.167969 149.417969 132.546875 148.894531 C 131.910156 148.394531 132.839844 146.203125 134.601562 144.015625 C 136.542969 141.835938 138.597656 140.5625 139.148438 141.132812 " fill-opacity="1" fill-rule="nonzero"/><path fill="#000000" d="M 128.476562 113.914062 C 131.496094 115.1875 133.683594 116.8125 133.375 117.550781 C 133.0625 118.292969 130.371094 117.863281 127.355469 116.605469 C 124.34375 115.324219 122.152344 113.691406 122.464844 112.949219 C 122.773438 112.21875 125.464844 112.632812 128.476562 113.914062 " fill-opacity="1" fill-rule="nonzero"/><path fill="#000000" d="M 125.671875 118.101562 C 129.34375 119.773438 132.035156 121.722656 131.6875 122.453125 C 131.335938 123.171875 128.148438 122.4375 124.582031 120.796875 C 120.894531 119.277344 118.148438 117.449219 118.464844 116.707031 C 118.769531 115.960938 122 116.582031 125.671875 118.101562 " fill-opacity="1" fill-rule="nonzero"/><path fill="#000000" d="M 129.964844 153.496094 C 130.820312 154.003906 125.65625 162.105469 122.152344 172.945312 C 120.519531 178.390625 119.914062 183.570312 119.375 187.296875 C 118.976562 191.101562 118.578125 193.472656 118.171875 193.472656 C 117.773438 193.449219 117.445312 191.070312 117.304688 187.21875 C 117.34375 183.339844 117.636719 177.878906 119.375 172.09375 C 121.117188 166.316406 123.859375 161.605469 125.894531 158.332031 C 128.078125 155.140625 129.617188 153.289062 129.964844 153.496094 " fill-opacity="1" fill-rule="nonzero"/><path fill="#000000" d="M 116.363281 281.628906 C 117.734375 281.824219 118.464844 282.03125 118.464844 282.238281 C 118.464844 282.429688 117.707031 282.597656 116.378906 282.773438 C 115.066406 282.996094 113.152344 283.179688 111.050781 283.960938 C 110.015625 284.355469 108.882812 284.90625 107.945312 285.664062 C 107.707031 285.859375 107.449219 286.050781 107.203125 286.242188 C 106.949219 286.496094 106.6875 286.769531 106.429688 287.03125 L 106.035156 287.445312 L 105.898438 287.597656 L 105.859375 287.636719 L 105.808594 287.738281 C 105.636719 288.027344 105.429688 288.257812 105.277344 288.605469 C 104.589844 289.878906 104.066406 291.449219 103.085938 293.136719 C 102.894531 293.535156 102.449219 294.105469 102.019531 294.570312 C 101.8125 294.808594 101.675781 294.878906 101.484375 295.03125 L 101.34375 295.140625 L 101.261719 295.222656 L 101.085938 295.347656 L 101.054688 295.347656 L 100.625 295.554688 C 99.429688 296.039062 98.449219 296.089844 97.449219 296.175781 C 93.035156 296.289062 89.171875 295.554688 85.730469 294.949219 L 84.488281 294.742188 L 84.625 293.484375 C 85.125 289.132812 85.691406 285.429688 85.898438 282.75 C 86.195312 280.097656 86.503906 278.5625 86.78125 278.5625 C 87.070312 278.5625 87.308594 280.113281 87.46875 282.789062 C 87.691406 285.183594 87.554688 288.535156 87.308594 292.5 C 90.4375 292.914062 93.863281 293.359375 97.289062 293.261719 C 98.117188 293.222656 98.960938 293.097656 99.445312 292.914062 L 99.605469 292.847656 L 99.71875 292.738281 C 99.882812 292.625 100.140625 292.460938 100.1875 292.363281 C 100.308594 292.140625 100.449219 292.046875 100.65625 291.65625 C 101.445312 290.375 102.066406 288.773438 102.949219 287.269531 C 103.140625 286.894531 103.445312 286.515625 103.707031 286.148438 L 103.8125 286.011719 L 103.859375 285.941406 L 103.996094 285.804688 L 104.011719 285.773438 L 104.242188 285.582031 L 104.65625 285.199219 C 104.933594 284.945312 105.1875 284.683594 105.476562 284.445312 C 105.824219 284.199219 106.175781 283.960938 106.496094 283.738281 C 107.847656 282.820312 109.171875 282.335938 110.429688 281.992188 C 112.960938 281.378906 115 281.507812 116.363281 281.628906 " fill-opacity="1" fill-rule="nonzero"/><path fill="#000000" d="M 115.390625 93.660156 C 116.546875 93.785156 117.167969 93.9375 117.167969 94.089844 C 117.167969 94.269531 116.546875 94.421875 115.414062 94.574219 C 114.253906 94.726562 112.585938 94.972656 110.359375 94.851562 C 109.242188 94.726562 108.015625 94.558594 106.6875 93.9375 C 106.34375 93.761719 106.015625 93.59375 105.667969 93.402344 C 105.324219 93.210938 105.117188 93.011719 104.839844 92.796875 L 104.433594 92.488281 L 104.226562 92.335938 L 104.175781 92.296875 L 104.050781 92.179688 L 103.953125 92.074219 C 103.707031 91.8125 103.445312 91.535156 103.191406 91.269531 C 101.359375 89.28125 99.550781 86.867188 98.363281 83.757812 C 95.273438 83.828125 92.207031 83.636719 89.15625 84.003906 C 88.066406 84.117188 87.015625 84.324219 86.195312 84.671875 C 86.035156 84.761719 85.921875 84.808594 85.761719 84.886719 L 85.414062 85.140625 L 85.277344 85.246094 L 85.261719 85.292969 C 85.191406 85.429688 85.09375 85.46875 85 85.652344 L 84.738281 86.242188 C 84.105469 88.078125 83.867188 90.15625 83.484375 92.25 C 83.292969 93.261719 83.078125 94.214844 82.96875 95.058594 C 82.929688 95.441406 82.929688 95.765625 82.96875 95.886719 C 82.984375 95.972656 83.078125 95.988281 83.078125 96.09375 C 83.175781 96.179688 83.292969 96.269531 83.398438 96.371094 C 83.988281 96.785156 84.792969 97.183594 85.554688 97.628906 C 86.296875 98.058594 87 98.527344 87.660156 99.007812 C 88.972656 99.976562 90.089844 101.027344 90.773438 102.214844 C 90.933594 102.507812 91.117188 102.78125 91.257812 103.058594 C 91.347656 103.375 91.449219 103.664062 91.539062 103.941406 C 91.761719 104.476562 91.792969 105.015625 91.816406 105.515625 C 91.914062 106.496094 91.679688 107.101562 91.554688 107.546875 C 91.417969 107.992188 91.308594 108.222656 91.210938 108.222656 C 91.101562 108.222656 91.019531 107.960938 90.964844 107.507812 C 90.894531 107.0625 90.949219 106.320312 90.675781 105.613281 C 90.34375 104.117188 89.070312 102.167969 86.519531 100.71875 C 85.898438 100.335938 85.222656 99.976562 84.488281 99.613281 C 83.773438 99.230469 82.96875 98.941406 82.042969 98.371094 C 81.796875 98.179688 81.558594 97.988281 81.3125 97.78125 C 81.066406 97.488281 80.800781 97.183594 80.675781 96.816406 C 80.363281 96.039062 80.402344 95.417969 80.417969 94.835938 C 80.5 93.746094 80.707031 92.765625 80.84375 91.765625 C 81.144531 89.847656 81.296875 87.640625 82.074219 85.261719 L 82.472656 84.3125 C 82.625 84.003906 82.929688 83.621094 83.191406 83.289062 L 83.292969 83.175781 C 83.328125 83.121094 83.429688 83.039062 83.429688 83.039062 L 83.46875 83 L 83.636719 82.875 L 83.964844 82.621094 C 84.296875 82.414062 84.695312 82.195312 85.039062 82.015625 C 86.328125 81.464844 87.570312 81.257812 88.8125 81.105469 C 91.601562 80.789062 96.429688 79.515625 99.039062 80.941406 C 101.757812 82.445312 102.894531 87.019531 104.949219 89.695312 C 106.621094 91.867188 108.605469 92.78125 110.582031 93.125 C 112.554688 93.46875 114.253906 93.507812 115.390625 93.660156 " fill-opacity="1" fill-rule="nonzero"/><path fill="#000000" d="M 97.636719 130.160156 C 97.726562 131.183594 97.742188 132.746094 96.953125 134.597656 C 96.585938 135.507812 95.910156 136.421875 95.105469 137.265625 C 94.277344 138.078125 93.296875 138.824219 92.246094 139.429688 C 90.136719 140.664062 87.8125 141.628906 85.882812 143.082031 C 85.4375 143.425781 85 143.738281 84.519531 144.253906 L 84.15625 144.582031 C 84.140625 144.597656 84.089844 144.667969 84.058594 144.683594 L 83.914062 144.84375 C 83.726562 145.042969 83.574219 145.25 83.429688 145.464844 C 83.136719 145.855469 82.96875 146.257812 82.953125 146.480469 C 82.929688 146.6875 82.929688 146.824219 83.160156 147.101562 C 83.621094 147.667969 84.585938 148.21875 85.4375 148.6875 C 86.3125 149.171875 87.195312 149.625 87.984375 150.085938 C 89.554688 150.996094 90.773438 152.101562 91.292969 153.105469 C 91.832031 154.140625 91.695312 154.742188 91.539062 154.792969 C 91.332031 154.863281 91.019531 154.347656 90.398438 153.773438 C 89.722656 153.191406 88.628906 152.554688 87.054688 151.910156 C 86.242188 151.601562 85.347656 151.242188 84.394531 150.859375 C 83.414062 150.414062 82.308594 150.03125 81.160156 148.894531 C 80.59375 148.34375 80.085938 147.292969 80.171875 146.269531 C 80.246094 145.273438 80.652344 144.53125 81.050781 143.878906 C 81.273438 143.5625 81.503906 143.257812 81.726562 142.980469 L 81.902344 142.773438 C 82.085938 142.566406 82.058594 142.621094 82.140625 142.527344 L 82.484375 142.183594 C 82.898438 141.738281 83.5 141.238281 84.121094 140.753906 C 86.503906 138.992188 89.003906 138.078125 90.933594 137.082031 C 92.933594 136.089844 94.308594 134.957031 95.121094 133.628906 C 95.949219 132.332031 96.253906 130.992188 96.515625 130.078125 C 96.722656 129.140625 96.929688 128.613281 97.121094 128.589844 C 97.328125 128.589844 97.496094 129.125 97.636719 130.160156 " fill-opacity="1" fill-rule="nonzero"/><path fill="#000000" d="M 96.253906 213.769531 C 96.585938 213.6875 97.65625 216.078125 97.519531 220.277344 C 97.433594 222.347656 97 224.878906 95.710938 227.449219 C 94.46875 230.019531 92.054688 232.449219 88.972656 233.832031 C 87.386719 234.507812 85.761719 234.835938 84.195312 235.003906 C 84.296875 238.140625 88.207031 239.714844 90.054688 241.679688 C 91.195312 242.753906 91.847656 243.871094 92.175781 244.6875 C 92.414062 245.476562 92.4375 245.921875 92.277344 245.996094 C 92.121094 246.082031 91.816406 245.738281 91.308594 245.117188 C 90.796875 244.59375 90.066406 243.835938 88.933594 243.074219 C 87.792969 242.285156 86.296875 241.578125 84.554688 240.320312 C 83.691406 239.699219 82.746094 238.855469 82.125 237.589844 C 81.503906 236.347656 81.367188 234.867188 81.519531 233.5 L 81.644531 232.417969 L 82.847656 232.3125 C 84.503906 232.144531 86.210938 231.828125 87.8125 231.160156 C 90.261719 230.042969 92.191406 228.246094 93.339844 226.160156 C 94.554688 224.089844 95.144531 221.910156 95.464844 220.070312 C 96.101562 216.308594 95.796875 213.839844 96.253906 213.769531 " fill-opacity="1" fill-rule="nonzero"/><path fill="#000000" d="M 95.019531 199.125 C 95.488281 200.039062 95.671875 200.589844 95.519531 200.730469 C 95.367188 200.851562 94.867188 200.523438 94.125 199.816406 C 93.742188 199.472656 93.3125 199.019531 92.8125 198.503906 C 92.277344 198.035156 91.707031 197.523438 91.085938 196.917969 C 90.46875 196.335938 89.640625 195.867188 88.863281 195.246094 C 88.050781 194.675781 87.054688 194.222656 86.089844 193.640625 C 85.621094 193.378906 85.015625 193.144531 84.449219 192.867188 C 84.195312 192.742188 83.773438 192.5 83.429688 192.277344 C 83.230469 192.105469 83.023438 191.914062 82.816406 191.707031 C 82.625 191.484375 82.472656 191.125 82.347656 190.796875 C 82.195312 190.203125 82.210938 189.5 82.332031 189.121094 L 82.5 188.464844 L 82.707031 187.933594 L 82.929688 187.414062 L 83.007812 187.273438 L 83.136719 187.035156 L 83.261719 186.8125 L 83.535156 186.375 L 83.675781 186.152344 L 83.898438 185.878906 C 85.222656 184.328125 86.640625 183.820312 87.828125 183.277344 C 89.003906 182.742188 90 182.328125 90.621094 181.636719 L 91.28125 181.03125 L 91.640625 180.492188 C 91.902344 180.1875 92.121094 179.757812 92.328125 179.328125 C 92.550781 178.929688 92.707031 178.476562 92.84375 178.046875 C 93.019531 177.617188 93.140625 177.203125 93.242188 176.773438 C 93.6875 175.117188 93.960938 173.628906 94.292969 172.667969 C 94.621094 171.664062 94.882812 171.148438 95.089844 171.179688 C 95.273438 171.21875 95.382812 171.800781 95.410156 172.804688 C 95.433594 173.820312 95.488281 175.269531 95.257812 177.164062 C 95.226562 177.632812 95.144531 178.128906 95.019531 178.652344 C 94.898438 179.164062 94.773438 179.703125 94.554688 180.269531 C 94.347656 180.824219 94.125 181.390625 93.710938 181.996094 C 93.503906 182.289062 93.3125 182.585938 93.121094 182.894531 L 92.5 183.53125 C 91.554688 184.671875 90.152344 185.296875 89.019531 185.863281 C 88.433594 186.140625 87.867188 186.390625 87.398438 186.691406 C 86.902344 186.984375 86.503906 187.34375 86.265625 187.589844 L 86.144531 187.6875 L 86.003906 187.910156 L 85.746094 188.347656 L 85.605469 188.554688 L 85.589844 188.570312 L 85.574219 188.640625 L 85.398438 189.039062 C 85.125 189.550781 85.109375 189.980469 85.070312 189.980469 C 85.09375 190.003906 85.109375 190.003906 85.125 190.019531 C 85.316406 190.144531 85.4375 190.242188 85.746094 190.394531 C 86.28125 190.6875 86.792969 190.933594 87.363281 191.292969 C 88.398438 191.984375 89.445312 192.574219 90.3125 193.296875 C 91.117188 194.085938 91.953125 194.730469 92.550781 195.484375 C 93.140625 196.226562 93.65625 196.917969 94.085938 197.507812 C 94.46875 198.128906 94.773438 198.671875 95.019531 199.125 " fill-opacity="1" fill-rule="nonzero"/></svg>