<svg xmlns="http://www.w3.org/2000/svg" xmlns:xlink="http://www.w3.org/1999/xlink" width="500" zoomAndPan="magnify" viewBox="0 0 375 374.999991" height="500" preserveAspectRatio="xMidYMid meet" version="1.0"><defs><clipPath id="dfb3cf321a"><path d="M 80.246094 98.699219 L 295.054688 98.699219 L 295.054688 276.449219 L 80.246094 276.449219 Z M 80.246094 98.699219 " clip-rule="nonzero"/></clipPath></defs><g clip-path="url(#dfb3cf321a)"><path fill="#f7ddb6" d="M 80.246094 153.097656 C 80.246094 123.058594 100.128906 98.695312 124.644531 98.695312 L 250.652344 98.695312 C 275.160156 98.695312 295.054688 123.058594 295.054688 153.097656 L 295.054688 222.027344 C 295.054688 252.085938 275.160156 276.453125 250.652344 276.453125 L 124.644531 276.453125 C 100.128906 276.453125 80.246094 252.085938 80.246094 222.027344 L 80.246094 153.097656 " fill-opacity="1" fill-rule="nonzero"/></g><path fill="#f4c37d" d="M 203.140625 171.355469 C 202.960938 166.933594 202.253906 161.550781 199.984375 157.6875 C 197.742188 153.871094 193.140625 153.082031 189.117188 152.707031 C 181.203125 151.976562 173.257812 151.613281 165.359375 150.652344 C 164.515625 150.550781 164.191406 151.355469 164.441406 151.960938 L 150.289062 157.972656 C 150.023438 157.183594 148.804688 157.386719 148.65625 158.226562 C 147.414062 165.1875 147.730469 173.148438 148.949219 180.113281 C 149.871094 185.332031 153.207031 187.695312 158.394531 187.175781 C 161.761719 186.839844 164.8125 185.816406 168.246094 185.753906 C 172.277344 185.675781 176.308594 185.773438 180.339844 185.714844 C 184.039062 185.660156 187.734375 185.390625 191.394531 184.871094 C 194.292969 184.457031 197.449219 184.039062 199.851562 182.265625 C 203.0625 179.90625 203.289062 174.921875 203.140625 171.355469 " fill-opacity="1" fill-rule="nonzero"/><path fill="#f7ddb6" d="M 184.082031 175.496094 C 187.304688 168.125 187.527344 159.855469 185.179688 152.371094 C 178.570312 151.839844 171.945312 151.453125 165.359375 150.652344 C 164.515625 150.550781 164.191406 151.355469 164.441406 151.960938 L 150.289062 157.972656 C 150.023438 157.183594 148.804688 157.386719 148.65625 158.226562 C 147.730469 163.402344 147.667969 169.140625 148.203125 174.613281 C 160.175781 174.273438 171.945312 175.40625 184.082031 175.496094 " fill-opacity="1" fill-rule="nonzero"/><path fill="#f4e8d3" d="M 262.511719 258.9375 C 262.511719 258.9375 259.738281 246.742188 259.738281 240.707031 C 259.738281 234.667969 265.214844 225.578125 268.679688 220.164062 C 272.132812 214.742188 278.757812 206.121094 278.757812 200.714844 C 278.757812 195.3125 276.164062 185.652344 276.164062 180.578125 C 276.164062 175.507812 276.285156 168.144531 273.992188 165.851562 C 271.699219 163.558594 271.699219 159.25 271.699219 159.25 C 271.699219 159.25 269.960938 152.859375 269.675781 148.128906 C 269.390625 143.394531 263.351562 130.957031 261.066406 127.757812 C 258.773438 124.558594 256.140625 120.710938 250.378906 117.976562 C 244.605469 115.242188 239.894531 111.964844 239.476562 116.175781 C 239.476562 116.175781 231.023438 109.574219 229.363281 110.722656 C 227.703125 111.867188 222.785156 119.859375 225.894531 125.015625 C 225.894531 125.015625 217.632812 121.472656 216.816406 122.289062 C 216.003906 123.105469 215.140625 129.542969 217.449219 133.050781 C 217.449219 133.050781 206.113281 131.226562 206.113281 131.851562 C 206.113281 132.472656 205.378906 136.875 209 140.011719 C 212.628906 143.148438 216.011719 146.292969 216.011719 146.292969 L 217.8125 154.789062 C 217.8125 154.789062 219.148438 161.425781 217.332031 165.839844 C 215.511719 170.25 215.140625 183.726562 215.140625 187.105469 C 215.140625 190.480469 212.25 211.191406 212.753906 215.597656 C 213.261719 219.996094 216.816406 227.527344 216.816406 227.527344 L 214.320312 261.714844 C 214.320312 261.714844 248.378906 262.914062 262.511719 258.9375 " fill-opacity="1" fill-rule="nonzero"/><path fill="#e3cbb8" d="M 255.871094 157.398438 C 252.394531 153.230469 254.929688 147.738281 259.621094 146.660156 C 256.78125 140.492188 253.261719 133.730469 257.328125 126.976562 C 253.699219 129.148438 249.347656 126.25 246.449219 124.804688 C 242.9375 122.289062 240.8125 118.726562 240.085938 114.609375 C 239.761719 114.933594 239.554688 115.433594 239.476562 116.175781 C 239.476562 116.175781 238.535156 115.4375 237.207031 114.496094 C 235.910156 121.507812 240.820312 128.5 247.601562 129.71875 C 247.261719 129.023438 246.882812 128.34375 246.449219 127.703125 C 246.882812 128.34375 247.261719 129.023438 247.601562 129.71875 C 247.941406 129.78125 248.285156 129.84375 248.621094 129.875 C 248.285156 129.84375 247.941406 129.78125 247.601562 129.71875 C 249.289062 133.089844 250.195312 136.972656 251.902344 140.320312 C 251.96875 139.421875 252.0625 138.578125 252.25 137.839844 C 252.0625 138.578125 251.96875 139.421875 251.902344 140.320312 C 252.234375 140.960938 252.574219 141.59375 252.972656 142.183594 C 252.574219 141.59375 252.234375 140.960938 251.902344 140.320312 C 251.5 146.5 253.136719 155.398438 244.28125 151.605469 C 242.101562 150.160156 241.375 146.53125 242.828125 144.363281 C 243.546875 143.636719 245.003906 144.363281 246.449219 144.363281 C 242.101562 140.738281 240.652344 134.21875 237.75 130.59375 C 234.195312 127.039062 228.691406 122.503906 225.617188 117.003906 C 224.738281 119.644531 224.460938 122.628906 225.894531 125.015625 C 225.894531 125.015625 224.605469 124.460938 222.992188 123.847656 C 231.65625 133.074219 243.453125 141.679688 237.75 153.777344 C 236.449219 157.679688 231.066406 155.160156 231.023438 150.410156 C 230.84375 150.5625 230.667969 150.71875 230.503906 150.878906 C 230.667969 150.71875 230.84375 150.5625 231.023438 150.410156 C 231.023438 149.867188 231.078125 149.296875 231.230469 148.703125 C 231.078125 149.296875 231.023438 149.867188 231.023438 150.410156 C 233.214844 148.578125 236.304688 147.652344 236.304688 143.636719 C 233.128906 144.273438 229.394531 143.789062 228.527344 140.246094 C 228.210938 140.632812 227.894531 141.035156 227.609375 141.460938 C 227.894531 141.035156 228.210938 140.632812 228.527344 140.246094 C 228.398438 139.746094 228.328125 139.191406 228.328125 138.566406 C 228.328125 139.191406 228.398438 139.746094 228.527344 140.246094 C 229.800781 138.660156 231.085938 137.269531 230.503906 134.941406 C 224.234375 137.222656 219.757812 132.785156 216.019531 128.316406 C 216.160156 130.007812 216.582031 131.730469 217.449219 133.050781 C 217.449219 133.050781 215.59375 132.761719 213.386719 132.441406 C 215.84375 136.621094 221.433594 140.628906 216.011719 143.636719 C 222.535156 141.460938 224.707031 146.53125 224.707031 151.605469 C 223.980469 152.332031 222.535156 153.058594 221.078125 153.058594 C 222.535156 155.226562 226.15625 155.226562 225.433594 158.847656 C 223.980469 163.195312 218.90625 166.09375 222.535156 171.164062 C 221.078125 170.441406 219.640625 169.714844 218.90625 170.441406 C 217.773438 171.578125 216.699219 172.789062 215.789062 174.074219 C 215.277344 179.28125 215.140625 185.050781 215.140625 187.105469 C 215.140625 190.480469 212.25 211.191406 212.753906 215.597656 C 213.261719 219.996094 216.816406 227.527344 216.816406 227.527344 L 214.320312 261.714844 C 214.320312 261.714844 216.511719 261.789062 220.011719 261.84375 C 223.804688 253.164062 218.832031 240.992188 226.882812 235.632812 C 229.785156 239.980469 229.054688 245.78125 229.054688 250.847656 C 231.230469 244.324219 233.402344 233.460938 230.503906 232.734375 C 214.5625 224.769531 216.730469 205.933594 218.90625 192.894531 C 218.90625 197.964844 221.804688 201.589844 226.15625 203.035156 C 227.609375 203.761719 228.328125 202.316406 229.785156 201.589844 C 231.230469 205.933594 231.957031 209.554688 236.304688 211.734375 C 242.101562 213.902344 247.902344 211.007812 247.902344 205.933594 C 247.902344 199.414062 247.175781 196.515625 252.972656 192.167969 C 252.972656 191.445312 252.972656 189.996094 252.972656 189.269531 C 260.21875 191.445312 263.847656 184.203125 260.21875 178.40625 C 262.394531 177.6875 263.847656 176.234375 263.847656 174.785156 C 266.015625 168.265625 260.949219 161.746094 255.871094 157.398438 " fill-opacity="1" fill-rule="nonzero"/><path fill="#ffffff" d="M 240.773438 197.425781 C 238.164062 196.355469 233.894531 197.613281 233.191406 200.609375 C 232.113281 205.175781 240.164062 210.320312 242.195312 204.96875 C 242.21875 204.894531 242.226562 204.828125 242.234375 204.753906 C 242.441406 205.09375 242.898438 205.246094 243.339844 204.945312 C 244.605469 204.074219 244.28125 202.164062 243.933594 200.882812 C 243.5 199.25 242.304688 198.054688 240.773438 197.425781 " fill-opacity="1" fill-rule="nonzero"/><path fill="#ffffff" d="M 238.765625 184.300781 C 232.875 186.363281 236.851562 197.714844 242.046875 195.628906 C 242.148438 195.820312 242.320312 195.964844 242.574219 195.964844 C 250.21875 195.964844 245.808594 181.84375 238.765625 184.300781 " fill-opacity="1" fill-rule="nonzero"/><path fill="#ffffff" d="M 246.644531 177.050781 C 241.601562 179.804688 248.664062 188.828125 252.550781 185.398438 C 252.71875 185.757812 253.113281 185.992188 253.621094 185.660156 C 254.535156 185.042969 255.074219 184.582031 255.082031 183.367188 C 255.082031 182.007812 254.378906 180.730469 253.632812 179.628906 C 252.117188 177.382812 249.289062 175.609375 246.644531 177.050781 " fill-opacity="1" fill-rule="nonzero"/><path fill="#ffffff" d="M 253.628906 160.164062 C 250.605469 160.316406 248.441406 162.972656 248.835938 165.910156 C 249.066406 167.683594 250.148438 169.273438 251.585938 170.273438 C 252.101562 170.632812 252.765625 170.929688 253.46875 171.097656 C 253.445312 171.3125 253.574219 171.554688 253.839844 171.597656 C 257.261719 172.125 259.105469 167.855469 259.265625 165.082031 C 259.4375 161.894531 256.511719 160.019531 253.628906 160.164062 " fill-opacity="1" fill-rule="nonzero"/><path fill="#ffffff" d="M 245.949219 166.488281 C 246.03125 166.300781 245.996094 166.121094 245.902344 165.976562 C 247.933594 162.476562 245.152344 158.28125 241.53125 157.070312 C 239.042969 156.234375 234.804688 156.867188 235.113281 160.28125 C 235.4375 163.871094 243.601562 172.117188 245.949219 166.488281 " fill-opacity="1" fill-rule="nonzero"/><path fill="#ffffff" d="M 227.941406 171.199219 C 229.484375 172.257812 232.730469 172.90625 233.453125 170.929688 C 233.753906 171.03125 234.101562 170.949219 234.265625 170.503906 C 234.558594 169.703125 235.128906 169.113281 235.277344 168.234375 C 235.421875 167.40625 235.324219 166.546875 235.039062 165.746094 C 234.40625 163.957031 233.191406 162.4375 231.585938 161.417969 C 228.960938 159.753906 224.714844 160.738281 224.082031 164.09375 C 223.546875 166.9375 225.75 169.695312 227.941406 171.199219 " fill-opacity="1" fill-rule="nonzero"/><path fill="#ffffff" d="M 225.601562 180.03125 L 225.796875 180.082031 C 225.808594 180.160156 225.824219 180.230469 225.832031 180.308594 C 225.902344 180.777344 226.492188 180.847656 226.761719 180.515625 C 228.304688 178.566406 226.605469 175.851562 225.046875 174.554688 C 223.132812 172.953125 220.34375 173.039062 218.558594 174.753906 C 215.425781 177.769531 219.117188 182.535156 222.785156 182.417969 C 223.671875 182.386719 224.582031 182.085938 225.128906 181.359375 C 225.378906 181.042969 225.632812 180.492188 225.601562 180.03125 " fill-opacity="1" fill-rule="nonzero"/><path fill="#ffffff" d="M 237.777344 173.347656 C 237.105469 173.125 236.421875 173.054688 235.546875 173.179688 C 234.019531 173.382812 232.550781 174.292969 231.347656 175.203125 C 229.214844 176.832031 227.71875 179.734375 230.105469 181.808594 C 232.929688 184.257812 237.777344 181.820312 239.949219 179.644531 C 241.167969 178.441406 241.863281 176.839844 241.199219 175.195312 C 240.699219 173.957031 239.113281 173.167969 237.777344 173.347656 " fill-opacity="1" fill-rule="nonzero"/><path fill="#ffffff" d="M 231.734375 190.1875 C 230.921875 189.46875 229.015625 189.113281 227.886719 189.691406 C 226.675781 190.042969 225.222656 191.566406 224.636719 192.289062 C 223.230469 194.023438 221.65625 197.292969 224.15625 198.839844 C 227.347656 200.820312 231.402344 197.699219 232.773438 194.894531 C 233.59375 193.21875 233.078125 191.371094 231.734375 190.1875 " fill-opacity="1" fill-rule="nonzero"/><path fill="#f4e8d3" d="M 129.757812 245.78125 C 129.757812 245.78125 132.644531 231.003906 138.996094 219.738281 C 138.996094 219.738281 150.734375 217.535156 157.636719 210.640625 C 164.539062 203.75 178.703125 192.683594 184.492188 192.683594 C 190.277344 192.683594 197.003906 192.265625 198.5 190.132812 C 199.984375 187.988281 196.214844 183.382812 189.9375 184.371094 C 183.667969 185.351562 163.921875 193.324219 159.96875 189.777344 C 156.015625 186.230469 156.214844 179.042969 156.214844 171.660156 C 156.214844 164.28125 167.21875 147.953125 167.21875 147.953125 L 181.535156 144.179688 C 181.535156 144.179688 182.894531 150.285156 185.589844 150.601562 C 188.277344 150.925781 194.175781 149.839844 194.175781 149.839844 C 194.175781 149.839844 192.121094 145.621094 189.234375 142.742188 C 186.355469 139.863281 180.453125 137.351562 180.453125 137.351562 L 170.433594 135.046875 C 170.433594 135.046875 164.472656 129.296875 162.332031 129.203125 C 160.203125 129.117188 154.464844 127.527344 151.960938 130.035156 C 149.453125 132.539062 144.921875 135.730469 144.921875 135.730469 L 136.613281 135.871094 C 136.613281 135.871094 131.710938 126.390625 127.980469 126.636719 C 124.257812 126.878906 115.839844 127.59375 117.765625 129.515625 C 119.6875 131.445312 117.6875 140.738281 117.6875 145.449219 C 117.6875 145.449219 111.917969 160.664062 109.820312 165.863281 C 107.734375 171.054688 101.488281 194.339844 101.488281 200.136719 C 101.488281 205.933594 83.875 233.460938 83.875 233.460938 C 83.875 233.460938 93.882812 245.78125 129.757812 245.78125 " fill-opacity="1" fill-rule="nonzero"/><path fill="#e3cbb8" d="M 162.332031 129.203125 C 160.203125 129.117188 154.464844 127.527344 151.960938 130.035156 C 149.453125 132.539062 144.921875 135.730469 144.921875 135.730469 L 136.613281 135.871094 C 136.613281 135.871094 131.761719 126.492188 128.046875 126.636719 C 128.691406 127.402344 128.992188 128.078125 128.3125 128.421875 C 125.414062 132.046875 123.238281 135.667969 123.957031 140.011719 C 127.933594 134.722656 133.714844 136.679688 138.550781 136.503906 C 138.976562 136.433594 139.429688 136.394531 139.902344 136.394531 C 139.460938 136.453125 139.007812 136.488281 138.550781 136.503906 C 135.738281 136.992188 134.003906 139.039062 133.382812 142.183594 C 142.804688 141.460938 147.878906 132.046875 156.574219 130.59375 C 155.128906 137.117188 148.601562 141.460938 147.152344 148.703125 C 152.910156 142.507812 161.105469 136.589844 169.753906 134.402344 C 168.125 132.910156 164.03125 129.28125 162.332031 129.203125 " fill-opacity="1" fill-rule="nonzero"/><path fill="#e3cbb8" d="M 138.550781 136.503906 C 139.007812 136.488281 139.460938 136.453125 139.902344 136.394531 C 139.429688 136.394531 138.976562 136.433594 138.550781 136.503906 " fill-opacity="1" fill-rule="nonzero"/><path fill="#e3cbb8" d="M 171.066406 142.183594 C 161.503906 145.378906 155.839844 155.972656 157.507812 165.96875 C 160.410156 158.0625 167.21875 147.953125 167.21875 147.953125 L 181.535156 144.179688 C 181.535156 144.179688 182.894531 150.285156 185.589844 150.601562 C 188.277344 150.925781 194.175781 149.839844 194.175781 149.839844 C 194.175781 149.839844 192.121094 145.621094 189.234375 142.742188 C 189.226562 142.730469 189.210938 142.714844 189.195312 142.703125 C 183.15625 142.082031 177.117188 140.375 171.066406 142.183594 " fill-opacity="1" fill-rule="nonzero"/><path fill="#e3cbb8" d="M 142.078125 213.902344 C 138.71875 217.265625 132.851562 215.636719 127.386719 215.382812 C 127.886719 215.660156 128.3125 216.074219 128.3125 216.074219 C 130.542969 228.34375 121.601562 236.320312 114.730469 244.960938 C 119.140625 245.472656 124.132812 245.78125 129.757812 245.78125 C 129.757812 245.78125 132.644531 231.003906 138.996094 219.738281 C 138.996094 219.738281 150.734375 217.535156 157.636719 210.640625 C 164.539062 203.75 178.703125 192.683594 184.492188 192.683594 C 188.5625 192.683594 193.09375 192.472656 195.945312 191.609375 C 176.03125 190.199219 157.507812 200.496094 142.078125 213.902344 " fill-opacity="1" fill-rule="nonzero"/><path fill="#5c3656" d="M 264.457031 257.941406 C 263.507812 249.75 261.722656 241.664062 264.117188 233.542969 C 266.140625 226.699219 270.570312 220.859375 274.378906 214.933594 C 278.03125 209.257812 280.796875 203.46875 280.980469 196.621094 C 281.171875 189.441406 279.296875 182.316406 279.15625 175.128906 C 279.027344 168.433594 277.359375 163.636719 273.335938 158.269531 C 271.003906 155.144531 268.308594 152.277344 265.652344 149.421875 C 263.933594 147.574219 262.339844 145.800781 260.085938 144.621094 C 256.703125 142.847656 254.605469 145.820312 254.039062 148.777344 C 252.789062 155.285156 256.710938 161.882812 260.742188 166.578125 C 261.320312 167.242188 262.324219 166.386719 261.785156 165.699219 C 257.871094 160.710938 253.96875 154 256.101562 147.457031 C 257.976562 141.699219 268.835938 155.722656 270.300781 157.5 C 272.316406 159.949219 274.214844 162.5625 275.621094 165.410156 C 277.042969 168.292969 277.058594 171.808594 277.15625 174.945312 C 277.351562 180.734375 278.464844 186.324219 279.113281 192.066406 C 279.898438 199.015625 278.195312 204.953125 274.585938 210.863281 C 271.613281 215.714844 268.355469 220.375 265.585938 225.351562 C 262.957031 230.09375 261.21875 235.191406 260.859375 240.621094 C 260.472656 246.59375 262.410156 252.332031 263.3125 258.140625 C 263.421875 258.890625 264.546875 258.679688 264.457031 257.941406 " fill-opacity="1" fill-rule="nonzero"/><path fill="#5c3656" d="M 260.921875 167.382812 C 260.71875 169.140625 260.941406 170.90625 261.144531 172.660156 C 261.34375 174.359375 261.375 176.242188 262.132812 177.789062 C 262.308594 178.136719 262.917969 178.167969 263.027344 177.75 C 263.4375 176.199219 263.082031 174.636719 262.867188 173.070312 C 262.609375 171.160156 262.511719 169.230469 262.25 167.328125 C 262.140625 166.566406 261.011719 166.648438 260.921875 167.382812 " fill-opacity="1" fill-rule="nonzero"/><path fill="#5c3656" d="M 255.398438 177.90625 C 253.230469 177.058594 251.546875 175.800781 249.097656 175.890625 C 247.546875 175.953125 246.179688 176.894531 245.421875 178.207031 C 243.871094 180.882812 245.460938 184.789062 247.640625 186.589844 C 249.691406 188.28125 253.40625 189.183594 255.714844 187.5 C 258.617188 185.382812 258.125 180.675781 255.636719 178.460938 C 255.359375 178.214844 255.050781 178.601562 255.144531 178.871094 C 255.855469 180.949219 256.851562 184.757812 254.457031 186.171875 C 252.875 187.105469 250.710938 186.527344 249.207031 185.738281 C 247.136719 184.648438 245.984375 182.648438 245.957031 180.304688 C 245.902344 175.695312 252.582031 176.222656 254.589844 179.042969 C 255.25 179.960938 256.566406 178.371094 255.398438 177.90625 " fill-opacity="1" fill-rule="nonzero"/><path fill="#5c3656" d="M 256.195312 181.902344 C 255.886719 184.363281 252.804688 185.128906 250.890625 184.496094 C 248.03125 183.539062 246.566406 180.914062 246.628906 178.0625 C 246.636719 177.722656 246.148438 177.574219 246.03125 177.921875 C 244.867188 181.257812 248.457031 184.277344 251.183594 185.296875 C 253.59375 186.1875 256.875 184.726562 256.582031 181.886719 C 256.558594 181.660156 256.226562 181.691406 256.195312 181.902344 " fill-opacity="1" fill-rule="nonzero"/><path fill="#5c3656" d="M 255.144531 183.949219 C 254.335938 182.664062 253.074219 181.621094 252.015625 180.539062 C 251.40625 179.914062 250.671875 179.457031 250.085938 178.800781 C 249.539062 178.179688 249.058594 177.503906 248.480469 176.910156 C 248.164062 176.59375 247.671875 177.007812 247.949219 177.363281 C 248.457031 178.011719 249.066406 178.578125 249.636719 179.1875 C 250.21875 179.828125 250.621094 180.59375 251.199219 181.238281 C 252.1875 182.347656 253.261719 183.675781 254.574219 184.425781 C 254.867188 184.59375 255.367188 184.308594 255.144531 183.949219 " fill-opacity="1" fill-rule="nonzero"/><path fill="#5c3656" d="M 258.355469 162.953125 C 256.1875 162.105469 254.511719 160.847656 252.0625 160.941406 C 250.511719 160.996094 249.136719 161.941406 248.386719 163.253906 C 246.835938 165.929688 248.417969 169.832031 250.605469 171.640625 C 252.652344 173.332031 256.378906 174.234375 258.679688 172.546875 C 261.574219 170.429688 261.082031 165.722656 258.589844 163.507812 C 258.324219 163.265625 258.023438 163.644531 258.109375 163.914062 C 258.8125 165.992188 259.816406 169.800781 257.421875 171.21875 C 255.839844 172.15625 253.675781 171.578125 252.171875 170.785156 C 250.101562 169.691406 248.9375 167.691406 248.914062 165.351562 C 248.867188 160.746094 255.550781 161.273438 257.554688 164.09375 C 258.210938 165.007812 259.53125 163.417969 258.355469 162.953125 " fill-opacity="1" fill-rule="nonzero"/><path fill="#5c3656" d="M 259.160156 166.949219 C 258.84375 169.414062 255.769531 170.179688 253.855469 169.546875 C 250.996094 168.589844 249.523438 165.960938 249.585938 163.109375 C 249.59375 162.769531 249.113281 162.625 248.988281 162.972656 C 247.824219 166.304688 251.414062 169.328125 254.140625 170.339844 C 256.554688 171.238281 259.839844 169.777344 259.539062 166.933594 C 259.515625 166.710938 259.183594 166.738281 259.160156 166.949219 " fill-opacity="1" fill-rule="nonzero"/><path fill="#5c3656" d="M 258.101562 168.996094 C 257.292969 167.707031 256.039062 166.664062 254.980469 165.585938 C 254.371094 164.960938 253.628906 164.5 253.050781 163.847656 C 252.496094 163.226562 252.015625 162.550781 251.4375 161.960938 C 251.128906 161.644531 250.628906 162.050781 250.914062 162.40625 C 251.421875 163.0625 252.039062 163.625 252.59375 164.230469 C 253.183594 164.871094 253.578125 165.636719 254.15625 166.285156 C 255.152344 167.394531 256.226562 168.726562 257.539062 169.476562 C 257.832031 169.644531 258.332031 169.359375 258.101562 168.996094 " fill-opacity="1" fill-rule="nonzero"/><path fill="#5c3656" d="M 223.917969 189.757812 C 223.039062 191.921875 221.773438 193.5625 221.839844 196.027344 C 221.878906 197.578125 222.820312 198.957031 224.121094 199.726562 C 226.777344 201.300781 230.699219 199.75 232.535156 197.589844 C 234.273438 195.535156 235.039062 192.128906 233.648438 189.726562 C 231.816406 186.5625 226.730469 187.050781 224.535156 189.460938 C 224.28125 189.738281 224.527344 190.121094 224.890625 190.003906 C 226.984375 189.320312 230.796875 188.375 232.1875 190.785156 C 233.105469 192.375 232.496094 194.539062 231.6875 196.027344 C 230.574219 198.085938 228.550781 199.214844 226.210938 199.214844 C 221.585938 199.214844 222.21875 192.527344 225.0625 190.558594 C 225.972656 189.921875 224.398438 188.574219 223.917969 189.757812 " fill-opacity="1" fill-rule="nonzero"/><path fill="#5c3656" d="M 227.933594 188.988281 C 230.390625 189.324219 231.128906 192.421875 230.472656 194.328125 C 229.484375 197.179688 226.824219 198.605469 223.972656 198.515625 C 223.632812 198.5 223.5 198.988281 223.835938 199.113281 C 227.167969 200.316406 230.226562 196.757812 231.269531 194.039062 C 232.195312 191.640625 230.765625 188.34375 227.925781 188.605469 C 227.695312 188.628906 227.726562 188.960938 227.933594 188.988281 " fill-opacity="1" fill-rule="nonzero"/><path fill="#5c3656" d="M 229.964844 190.066406 C 228.667969 190.863281 227.609375 192.113281 226.511719 193.15625 C 225.886719 193.761719 225.417969 194.492188 224.753906 195.066406 C 224.132812 195.605469 223.453125 196.082031 222.851562 196.65625 C 222.527344 196.960938 222.9375 197.453125 223.300781 197.179688 C 223.957031 196.679688 224.527344 196.074219 225.140625 195.519531 C 225.789062 194.9375 226.566406 194.546875 227.214844 193.980469 C 228.335938 193 229.679688 191.933594 230.449219 190.636719 C 230.621094 190.34375 230.320312 189.847656 229.964844 190.066406 " fill-opacity="1" fill-rule="nonzero"/><path fill="#5c3656" d="M 246.085938 158.226562 C 243.894531 157.355469 242.1875 156.09375 239.703125 156.183594 C 238.132812 156.242188 236.75 157.199219 235.980469 158.523438 C 234.414062 161.234375 236.019531 165.191406 238.234375 167.019531 C 240.304688 168.726562 244.070312 169.644531 246.410156 167.933594 C 249.34375 165.792969 248.835938 161.039062 246.332031 158.785156 C 246.054688 158.535156 245.753906 158.921875 245.847656 159.191406 C 246.566406 161.308594 247.578125 165.171875 245.144531 166.613281 C 243.539062 167.5625 241.332031 166.976562 239.808594 166.175781 C 237.703125 165.058594 236.535156 163.023438 236.511719 160.648438 C 236.457031 155.960938 243.238281 156.511719 245.285156 159.363281 C 245.941406 160.28125 247.261719 158.691406 246.085938 158.226562 " fill-opacity="1" fill-rule="nonzero"/><path fill="#5c3656" d="M 246.90625 162.269531 C 246.597656 164.777344 243.46875 165.554688 241.523438 164.90625 C 238.613281 163.9375 237.128906 161.265625 237.191406 158.375 C 237.199219 158.035156 236.714844 157.890625 236.589844 158.238281 C 235.421875 161.621094 239.046875 164.671875 241.816406 165.707031 C 244.257812 166.613281 247.585938 165.132812 247.285156 162.253906 C 247.269531 162.035156 246.929688 162.0625 246.90625 162.269531 " fill-opacity="1" fill-rule="nonzero"/><path fill="#5c3656" d="M 245.832031 164.34375 C 245.003906 163.042969 243.730469 161.988281 242.660156 160.890625 C 242.046875 160.257812 241.292969 159.789062 240.699219 159.125 C 240.148438 158.496094 239.65625 157.816406 239.066406 157.214844 C 238.757812 156.898438 238.265625 157.304688 238.542969 157.660156 C 239.058594 158.320312 239.679688 158.898438 240.25 159.515625 C 240.851562 160.160156 241.246094 160.9375 241.832031 161.589844 C 242.84375 162.71875 243.941406 164.0625 245.253906 164.832031 C 245.554688 164.996094 246.0625 164.703125 245.832031 164.34375 " fill-opacity="1" fill-rule="nonzero"/><path fill="#5c3656" d="M 231.769531 174.597656 C 234.011719 171.5625 240.242188 171.214844 240.992188 175.574219 C 241.445312 178.152344 239.769531 180.554688 237.664062 181.808594 C 236.035156 182.773438 233.933594 183.175781 232.140625 182.476562 C 229.167969 181.300781 230.398438 176.617188 231.167969 174.453125 C 231.277344 174.15625 230.898438 173.863281 230.644531 174.089844 C 228.042969 176.480469 227.671875 181.078125 230.390625 183.5 C 232.726562 185.585938 236.613281 184.402344 238.875 182.910156 C 241.640625 181.082031 242.882812 176.886719 241.578125 173.878906 C 240.914062 172.34375 239.277344 171.597656 237.730469 171.347656 C 235.191406 170.9375 233.050781 172.628906 230.875 173.539062 C 229.816406 173.972656 231.03125 175.59375 231.769531 174.597656 " fill-opacity="1" fill-rule="nonzero"/><path fill="#5c3656" d="M 229.65625 177.734375 C 229.347656 180.863281 232.804688 182.039062 235.347656 181.34375 C 238.425781 180.515625 242.039062 176.878906 240.882812 173.46875 C 240.789062 173.183594 240.289062 173.269531 240.296875 173.570312 C 240.394531 176.589844 239.011719 178.949219 236.28125 180.347656 C 234.109375 181.457031 230.367188 180.496094 230.035156 177.71875 C 230.011719 177.496094 229.679688 177.519531 229.65625 177.734375 " fill-opacity="1" fill-rule="nonzero"/><path fill="#5c3656" d="M 231.722656 180.441406 C 233.109375 179.605469 234.21875 178.246094 235.308594 177.0625 C 235.949219 176.363281 236.367188 175.550781 237.015625 174.855469 C 237.632812 174.1875 238.304688 173.558594 238.867188 172.839844 C 239.105469 172.535156 238.628906 172.09375 238.363281 172.382812 C 237.847656 172.90625 237.414062 173.492188 236.9375 174.042969 C 236.21875 174.882812 235.363281 175.464844 234.613281 176.242188 C 233.476562 177.390625 232.113281 178.515625 231.238281 179.871094 C 231.046875 180.171875 231.363281 180.648438 231.722656 180.441406 " fill-opacity="1" fill-rule="nonzero"/><path fill="#5c3656" d="M 244.519531 186.71875 C 243.453125 183.683594 238.835938 183.628906 236.628906 185.378906 C 234.011719 187.46875 234.628906 192.265625 236.328125 194.664062 C 238.25 197.375 242.195312 197.671875 245.003906 196.429688 C 248.699219 194.792969 250.378906 189.292969 246.859375 186.621094 C 246.550781 186.390625 246.148438 186.695312 246.195312 187.042969 C 246.449219 188.710938 247.351562 190.023438 246.929688 191.804688 C 246.613281 193.148438 245.40625 194.214844 244.242188 194.832031 C 242.402344 195.808594 240.117188 195.492188 238.386719 194.464844 C 236.179688 193.15625 235.742188 190.050781 236.441406 187.800781 C 237.355469 184.882812 242.558594 184.449219 244.3125 186.851562 C 244.402344 186.96875 244.558594 186.839844 244.519531 186.71875 " fill-opacity="1" fill-rule="nonzero"/><path fill="#5c3656" d="M 243.160156 186.878906 C 243.324219 187.347656 240.753906 189.515625 240.339844 189.996094 C 239.347656 191.132812 238.367188 192.53125 237.808594 193.945312 C 237.46875 194.808594 238.804688 195.289062 239.160156 194.441406 C 239.753906 193.015625 240.699219 191.640625 241.703125 190.464844 C 242.195312 189.886719 242.71875 189.355469 243.175781 188.757812 C 243.414062 188.449219 243.800781 187.402344 244.117188 187.214844 C 245.777344 186.253906 242.488281 185.050781 243.160156 186.878906 " fill-opacity="1" fill-rule="nonzero"/><path fill="#5c3656" d="M 242.289062 199.390625 C 241.339844 196.570312 237.058594 196.515625 235.027344 198.132812 C 232.605469 200.070312 233.175781 204.496094 234.730469 206.714844 C 236.511719 209.234375 240.15625 209.511719 242.757812 208.359375 C 246.132812 206.871094 247.832031 201.660156 244.441406 199.285156 C 244.132812 199.058594 243.746094 199.34375 243.785156 199.703125 C 243.957031 201.21875 244.804688 202.425781 244.425781 204.03125 C 244.132812 205.246094 243.039062 206.210938 241.996094 206.769531 C 240.328125 207.648438 238.273438 207.363281 236.710938 206.4375 C 234.703125 205.265625 234.296875 202.449219 234.9375 200.410156 C 235.765625 197.773438 240.472656 197.382812 242.085938 199.523438 C 242.179688 199.652344 242.335938 199.519531 242.289062 199.390625 " fill-opacity="1" fill-rule="nonzero"/><path fill="#5c3656" d="M 240.976562 199.574219 C 241.128906 199.890625 238.742188 201.984375 238.410156 202.371094 C 237.492188 203.414062 236.589844 204.699219 236.085938 205.996094 C 235.734375 206.867188 237.070312 207.347656 237.429688 206.492188 C 237.972656 205.191406 238.84375 203.933594 239.753906 202.859375 C 240.203125 202.332031 240.675781 201.851562 241.097656 201.296875 C 241.277344 201.050781 241.671875 200.039062 241.933594 199.914062 C 242.496094 199.644531 242.464844 198.804688 241.878906 198.589844 C 241.277344 198.367188 240.707031 199 240.976562 199.574219 " fill-opacity="1" fill-rule="nonzero"/><path fill="#5c3656" d="M 225.101562 174.40625 C 224.15625 171.585938 219.871094 171.53125 217.839844 173.148438 C 215.410156 175.085938 215.980469 179.511719 217.546875 181.738281 C 219.316406 184.257812 222.96875 184.535156 225.570312 183.382812 C 228.945312 181.890625 230.644531 176.675781 227.261719 174.296875 C 226.9375 174.074219 226.550781 174.363281 226.589844 174.722656 C 226.769531 176.242188 227.617188 177.441406 227.238281 179.054688 C 226.953125 180.265625 225.855469 181.234375 224.808594 181.785156 C 223.152344 182.664062 221.078125 182.378906 219.515625 181.460938 C 217.515625 180.285156 217.101562 177.464844 217.742188 175.425781 C 218.574219 172.789062 223.277344 172.40625 224.898438 174.546875 C 224.984375 174.664062 225.140625 174.535156 225.101562 174.40625 " fill-opacity="1" fill-rule="nonzero"/><path fill="#5c3656" d="M 223.789062 174.589844 C 223.933594 174.90625 221.554688 177 221.214844 177.386719 C 220.304688 178.4375 219.402344 179.722656 218.890625 181.015625 C 218.542969 181.882812 219.878906 182.367188 220.242188 181.519531 C 220.785156 180.214844 221.648438 178.953125 222.566406 177.878906 C 223.007812 177.347656 223.480469 176.863281 223.902344 176.3125 C 224.082031 176.070312 224.484375 175.054688 224.746094 174.929688 C 225.316406 174.660156 225.269531 173.820312 224.683594 173.601562 C 224.089844 173.378906 223.523438 174.019531 223.789062 174.589844 " fill-opacity="1" fill-rule="nonzero"/><path fill="#5c3656" d="M 232.304688 162.910156 C 231.355469 160.089844 227.070312 160.035156 225.03125 161.652344 C 222.613281 163.585938 223.183594 168.015625 224.746094 170.242188 C 226.511719 172.757812 230.171875 173.035156 232.773438 171.882812 C 236.148438 170.394531 237.847656 165.175781 234.464844 162.800781 C 234.136719 162.578125 233.753906 162.863281 233.800781 163.222656 C 233.972656 164.738281 234.820312 165.945312 234.4375 167.554688 C 234.15625 168.765625 233.0625 169.730469 232.011719 170.285156 C 230.351562 171.167969 228.289062 170.882812 226.722656 169.960938 C 224.714844 168.789062 224.304688 165.964844 224.945312 163.929688 C 225.777344 161.285156 230.476562 160.902344 232.101562 163.042969 C 232.1875 163.167969 232.34375 163.03125 232.304688 162.910156 " fill-opacity="1" fill-rule="nonzero"/><path fill="#5c3656" d="M 230.992188 163.09375 C 231.144531 163.410156 228.753906 165.503906 228.421875 165.890625 C 227.507812 166.941406 226.605469 168.222656 226.089844 169.515625 C 225.75 170.386719 227.085938 170.867188 227.441406 170.011719 C 227.988281 168.714844 228.851562 167.460938 229.769531 166.378906 C 230.21875 165.851562 230.691406 165.367188 231.113281 164.816406 C 231.292969 164.570312 231.6875 163.554688 231.949219 163.433594 C 232.511719 163.164062 232.480469 162.324219 231.886719 162.105469 C 231.292969 161.882812 230.730469 162.515625 230.992188 163.09375 " fill-opacity="1" fill-rule="nonzero"/><path fill="#5c3656" d="M 213.285156 261.003906 C 214.699219 254.425781 215.046875 247.632812 215.875 240.960938 C 216.25 237.949219 216.839844 234.960938 217.148438 231.945312 C 217.386719 229.582031 216.636719 227.234375 216.476562 224.886719 C 216.445312 224.359375 215.664062 224.074219 215.300781 224.457031 C 213.988281 225.839844 214.152344 227.109375 214.558594 228.957031 C 215.277344 232.300781 214.34375 236.078125 214.179688 239.464844 C 213.8125 246.644531 213.371094 253.804688 212.9375 260.972656 C 212.921875 261.203125 213.234375 261.222656 213.285156 261.003906 " fill-opacity="1" fill-rule="nonzero"/><path fill="#5c3656" d="M 256.308594 232.148438 C 252.613281 234.386719 248.582031 232.390625 245.277344 230.417969 C 243.121094 229.132812 239.785156 228.976562 237.363281 229.046875 C 236.296875 229.085938 235.671875 230.726562 236.914062 231.050781 C 241.019531 232.117188 245.285156 232.324219 249.414062 233.371094 C 251.894531 234 254.335938 233.816406 256.433594 232.347656 C 256.542969 232.269531 256.417969 232.078125 256.308594 232.148438 " fill-opacity="1" fill-rule="nonzero"/><path fill="#5c3656" d="M 220.1875 229.355469 C 223.476562 231.867188 228.1875 232.878906 232.1875 231.566406 C 233.515625 231.128906 232.558594 228.910156 231.238281 229.5625 C 228.117188 231.101562 223.523438 230.640625 220.527344 228.871094 C 220.203125 228.679688 219.886719 229.125 220.1875 229.355469 " fill-opacity="1" fill-rule="nonzero"/><path fill="#5c3656" d="M 231.585938 248.710938 C 232.28125 246.570312 232.535156 244.5 232.398438 242.242188 C 232.179688 238.5625 232.328125 235.242188 233.050781 231.632812 C 233.324219 230.253906 231.101562 230.03125 230.859375 231.425781 C 230.390625 234.109375 231.007812 236.410156 231.285156 239.070312 C 231.601562 242.207031 231.777344 245.527344 231.355469 248.664062 C 231.332031 248.796875 231.546875 248.84375 231.585938 248.710938 " fill-opacity="1" fill-rule="nonzero"/><path fill="#5c3656" d="M 244.101562 247.96875 C 243.5 247.269531 243.933594 245.289062 243.988281 244.421875 C 244.058594 243.445312 244.203125 242.460938 244.234375 241.492188 C 244.273438 240.597656 242.835938 240.5 242.867188 241.363281 C 242.90625 242.246094 243 243.125 243.082031 244 C 243.175781 245.039062 243.679688 247.179688 242.960938 248.023438 C 241.816406 249.359375 245.351562 249.410156 244.101562 247.96875 " fill-opacity="1" fill-rule="nonzero"/><path fill="#5c3656" d="M 272.464844 157.085938 C 272.078125 153.179688 271.832031 149.246094 271.3125 145.355469 C 270.941406 142.59375 270.332031 138.976562 268.015625 137.175781 C 267.730469 136.957031 267.183594 137.160156 267.191406 137.550781 C 267.28125 140.652344 268.710938 143.796875 269.390625 146.828125 C 270.171875 150.285156 270.648438 153.828125 271.660156 157.230469 C 271.8125 157.726562 272.511719 157.617188 272.464844 157.085938 " fill-opacity="1" fill-rule="nonzero"/><path fill="#5c3656" d="M 268.972656 138.394531 C 268.796875 136.757812 267.714844 135.234375 266.910156 133.847656 C 265.515625 131.457031 264.253906 129 262.804688 126.632812 C 260.542969 122.921875 257.746094 117.488281 252.796875 117.40625 C 252.292969 117.402344 251.816406 118.023438 252.25 118.449219 C 253.988281 120.171875 256.210938 121.058594 257.722656 123.105469 C 258.859375 124.636719 259.945312 126.207031 261.066406 127.757812 C 263.539062 131.171875 266.625 134.632812 268 138.703125 C 268.195312 139.28125 269.035156 138.933594 268.972656 138.394531 " fill-opacity="1" fill-rule="nonzero"/><path fill="#5c3656" d="M 254.957031 118.355469 C 252.472656 116.890625 249.769531 115.730469 247.222656 114.347656 C 245.097656 113.1875 242.914062 112.207031 240.527344 111.75 C 239.578125 111.5625 238.921875 112.714844 239.300781 113.496094 C 239.378906 113.660156 239.460938 113.828125 239.539062 113.996094 C 239.695312 114.324219 240.132812 114.5 240.472656 114.324219 C 241.847656 113.605469 245.839844 115.882812 247.207031 116.492188 C 249.570312 117.535156 252.023438 119.003906 254.613281 119.257812 C 255.097656 119.304688 255.398438 118.617188 254.957031 118.355469 " fill-opacity="1" fill-rule="nonzero"/><path fill="#5c3656" d="M 240.21875 113.054688 C 238.203125 113.789062 237.792969 116.449219 237.5 118.316406 C 237.007812 121.515625 237.4375 123.988281 239.222656 126.726562 C 242.195312 131.289062 251.539062 134.328125 254.496094 128.300781 C 254.632812 128.019531 254.28125 127.769531 254.039062 127.882812 C 251.382812 129.09375 249.515625 129.964844 246.527344 129.203125 C 244.359375 128.652344 242.402344 126.855469 241.03125 125.191406 C 238.417969 121.984375 238.28125 116.957031 240.773438 113.707031 C 241.066406 113.324219 240.605469 112.910156 240.21875 113.054688 " fill-opacity="1" fill-rule="nonzero"/><path fill="#5c3656" d="M 247.722656 131.15625 C 247.808594 132.339844 248.679688 133.582031 249.097656 134.679688 C 249.691406 136.210938 250.550781 138.25 250.457031 139.9375 C 250.425781 140.425781 250.75 140.742188 251.207031 140.839844 C 251.285156 140.859375 251.367188 140.875 251.445312 140.890625 C 251.191406 140.496094 250.945312 140.101562 250.703125 139.710938 C 250.648438 139.933594 250.597656 140.15625 250.542969 140.375 C 250.417969 140.886719 250.535156 141.246094 250.921875 141.597656 C 252.867188 143.339844 255.578125 144.675781 258.148438 143.632812 C 258.773438 143.378906 258.734375 142.359375 258.085938 142.160156 C 256.726562 141.75 252.796875 141.5625 252.394531 139.863281 C 252.28125 139.40625 251.863281 139.050781 251.375 139.152344 C 251.296875 139.164062 251.214844 139.179688 251.144531 139.199219 C 251.4375 139.347656 251.738281 139.503906 252.03125 139.65625 C 251.4375 137.800781 251.082031 135.90625 250.394531 134.070312 C 249.949219 132.910156 249.46875 131.289062 248.289062 130.679688 C 247.972656 130.515625 247.707031 130.875 247.722656 131.15625 " fill-opacity="1" fill-rule="nonzero"/><path fill="#5c3656" d="M 251.933594 142.375 C 251.570312 144.285156 251.644531 146.535156 251.625 148.480469 C 251.601562 150.109375 251.738281 152.332031 253.390625 153.144531 C 254.148438 153.515625 254.6875 152.476562 254.257812 151.910156 C 253.042969 150.292969 253.320312 148.222656 253.414062 146.292969 C 253.46875 145.023438 253.839844 143.125 252.914062 142.066406 C 252.574219 141.683594 252.03125 141.917969 251.933594 142.375 " fill-opacity="1" fill-rule="nonzero"/><path fill="#5c3656" d="M 239.058594 114.667969 C 238.472656 114.175781 237.769531 113.945312 237.082031 113.636719 C 236.019531 113.160156 235.0625 112.351562 234.171875 111.632812 C 232.644531 110.414062 231.101562 108.976562 229.148438 108.570312 C 228.144531 108.355469 227.625 109.914062 228.464844 110.429688 C 230.320312 111.5625 232.105469 112.679688 233.886719 113.957031 C 235.269531 114.957031 237.207031 116.316406 238.96875 115.667969 C 239.421875 115.503906 239.359375 114.921875 239.058594 114.667969 " fill-opacity="1" fill-rule="nonzero"/><path fill="#5c3656" d="M 228.746094 109.421875 C 222.3125 112.308594 222.484375 119.601562 225.308594 124.910156 C 228.527344 130.980469 234.132812 136.59375 241.074219 132.046875 C 241.539062 131.742188 241.222656 130.957031 240.707031 130.925781 C 238.066406 130.769531 235.695312 132.703125 233.109375 131.015625 C 230.890625 129.550781 229.238281 126.945312 227.863281 124.730469 C 225.191406 120.445312 223.695312 113.671875 229.363281 110.722656 C 230.1875 110.296875 229.59375 109.042969 228.746094 109.421875 " fill-opacity="1" fill-rule="nonzero"/><path fill="#5c3656" d="M 235.160156 133.367188 C 236.984375 136.023438 237.609375 139.097656 239.105469 141.917969 C 239.722656 143.078125 240.542969 144.167969 241.714844 144.808594 C 242.386719 145.167969 244.265625 145.628906 244.542969 144.476562 C 244.796875 143.464844 243.855469 143.214844 243.058594 142.960938 C 241.59375 142.507812 240.898438 140.609375 240.179688 139.433594 C 238.914062 137.382812 238.1875 133.574219 235.765625 132.496094 C 235.214844 132.253906 234.875 132.957031 235.160156 133.367188 " fill-opacity="1" fill-rule="nonzero"/><path fill="#5c3656" d="M 248.03125 155.113281 C 244.347656 153.96875 241.421875 152.511719 241.46875 148.21875 C 241.5 145.390625 242.058594 142.808594 239.671875 140.796875 C 239.152344 140.355469 238.203125 140.933594 238.398438 141.605469 C 239.058594 143.828125 239.332031 145.695312 239.261719 148.007812 C 239.207031 149.605469 239.671875 150.796875 240.488281 152.140625 C 241.886719 154.472656 245.246094 155.925781 247.863281 155.847656 C 248.257812 155.832031 248.480469 155.25 248.03125 155.113281 " fill-opacity="1" fill-rule="nonzero"/><path fill="#5c3656" d="M 227.539062 126.011719 C 224.714844 124.160156 221.378906 122.914062 219.125 120.300781 C 218.265625 119.304688 217.085938 119.074219 215.957031 119.667969 C 213.523438 120.945312 214.035156 127.222656 214.210938 129.363281 C 214.828125 136.601562 225.308594 144.894531 231.066406 137.6875 C 231.625 136.996094 230.503906 136.230469 229.949219 136.902344 C 226.90625 140.554688 222.761719 137.941406 219.75 135.6875 C 217.140625 133.730469 216.089844 130.585938 215.980469 127.453125 C 215.941406 126.097656 215.949219 120.339844 218.484375 122.289062 C 221.007812 124.230469 224.074219 125.824219 227.0625 126.914062 C 227.609375 127.109375 228.035156 126.335938 227.539062 126.011719 " fill-opacity="1" fill-rule="nonzero"/><path fill="#5c3656" d="M 224.628906 140.863281 C 225.757812 143.300781 225.433594 146.152344 226.882812 148.507812 C 228.210938 150.664062 231.894531 149.503906 233.769531 149.019531 C 235.082031 148.679688 234.714844 146.597656 233.402344 146.949219 C 231.617188 147.417969 228.628906 148.816406 227.5625 146.640625 C 226.605469 144.699219 226.195312 142.542969 225.152344 140.613281 C 224.96875 140.289062 224.46875 140.523438 224.628906 140.863281 " fill-opacity="1" fill-rule="nonzero"/><path fill="#5c3656" d="M 227.855469 148.765625 C 228.691406 152.769531 226.660156 157.242188 228.175781 161.078125 C 228.472656 161.8125 229.5625 161.542969 229.640625 160.820312 C 229.863281 158.832031 229.457031 156.789062 229.523438 154.773438 C 229.585938 152.65625 229.390625 150.628906 229.269531 148.523438 C 229.214844 147.609375 227.65625 147.84375 227.855469 148.765625 " fill-opacity="1" fill-rule="nonzero"/><path fill="#5c3656" d="M 216.242188 133.050781 C 214.484375 132.230469 212.453125 131.660156 210.613281 131.039062 C 209.148438 130.542969 207.296875 130.167969 205.980469 131.140625 C 205.339844 131.613281 205.6875 132.796875 206.5 132.808594 C 207.242188 132.816406 207.949219 132.671875 208.699219 132.761719 C 209.773438 132.871094 210.847656 133.332031 211.867188 133.6875 C 213.277344 134.183594 214.828125 134.804688 216.296875 134.273438 C 216.890625 134.0625 216.699219 133.273438 216.242188 133.050781 " fill-opacity="1" fill-rule="nonzero"/><path fill="#5c3656" d="M 206.113281 131.851562 C 203.300781 134.75 206.960938 140.425781 208.96875 142.730469 C 210.421875 144.382812 212.214844 145.519531 214.421875 145.71875 C 216.871094 145.929688 218.113281 143.8125 219.167969 142.003906 C 219.308594 141.769531 219.0625 141.363281 218.777344 141.546875 C 217.53125 142.304688 216.15625 143.457031 214.636719 143.519531 C 212.851562 143.59375 211.316406 142.085938 210.230469 140.886719 C 207.917969 138.328125 207.242188 135.777344 207.316406 132.472656 C 207.324219 131.90625 206.605469 131.351562 206.113281 131.851562 " fill-opacity="1" fill-rule="nonzero"/><path fill="#5c3656" d="M 213.773438 145.332031 C 214.800781 146.007812 215.109375 147.84375 215.386719 148.929688 C 215.726562 150.265625 215.996094 151.640625 216.210938 153.003906 C 216.367188 154.066406 216.460938 154.96875 217.417969 155.609375 C 218.847656 156.566406 220.960938 156.355469 222.507812 155.933594 C 223.625 155.625 223.363281 154.050781 222.195312 154.15625 C 220.96875 154.273438 219.863281 154.425781 218.667969 154 C 218.164062 153.824219 218.226562 153.089844 218.152344 152.664062 C 217.964844 151.457031 217.664062 150.261719 217.371094 149.074219 C 216.953125 147.375 216.382812 144.289062 214.265625 143.984375 C 213.53125 143.875 213.15625 144.925781 213.773438 145.332031 " fill-opacity="1" fill-rule="nonzero"/><path fill="#5c3656" d="M 216.3125 154.789062 C 217.871094 158.523438 211.90625 170.394531 218.453125 171.390625 C 219.417969 171.539062 219.871094 170.171875 219.09375 169.65625 C 214.644531 166.664062 220.359375 158.40625 217.425781 154.070312 C 216.984375 153.414062 216.035156 154.125 216.3125 154.789062 " fill-opacity="1" fill-rule="nonzero"/><path fill="#5c3656" d="M 215.511719 169.308594 C 215.480469 174.003906 213.964844 178.507812 213.300781 183.128906 C 212.945312 185.609375 213.210938 188.167969 213.117188 190.667969 C 213.015625 193.746094 212.554688 196.808594 212.105469 199.855469 C 210.902344 208.035156 207.734375 220.195312 213.8125 227.21875 C 214.527344 228.042969 215.996094 227.160156 215.449219 226.152344 C 210.652344 217.332031 213.394531 206.914062 214.644531 197.453125 C 215.324219 192.34375 214.859375 187.222656 215.464844 182.144531 C 215.996094 177.789062 217.332031 173.671875 216.503906 169.265625 C 216.398438 168.726562 215.519531 168.726562 215.511719 169.308594 " fill-opacity="1" fill-rule="nonzero"/><path fill="#5c3656" d="M 198.53125 153.558594 C 202.097656 163.390625 204.738281 173.039062 199.835938 182.917969 C 199.234375 184.117188 201.195312 184.828125 201.789062 183.636719 C 206.761719 173.617188 204.042969 162.746094 199.078125 153.304688 C 198.886719 152.957031 198.40625 153.199219 198.53125 153.558594 " fill-opacity="1" fill-rule="nonzero"/><path fill="#5c3656" d="M 199.023438 152.511719 C 198.222656 151.398438 196.671875 151.394531 195.441406 151.410156 C 194.59375 151.417969 193.757812 151.492188 192.910156 151.511719 C 192.105469 151.53125 191.21875 151.214844 190.445312 151.441406 C 189.882812 151.605469 189.558594 152.242188 189.976562 152.742188 C 190.761719 153.6875 192.292969 153.5 193.410156 153.445312 C 195.070312 153.367188 196.539062 153.246094 198.128906 153.785156 C 198.925781 154.054688 199.480469 153.152344 199.023438 152.511719 " fill-opacity="1" fill-rule="nonzero"/><path fill="#5c3656" d="M 200.839844 183.65625 C 199.8125 183.296875 198.738281 183.394531 197.664062 183.484375 C 196.570312 183.585938 195.234375 183.445312 194.285156 184.03125 C 193.875 184.28125 193.660156 184.972656 194.183594 185.273438 C 195.117188 185.800781 196.042969 185.621094 197.085938 185.523438 C 198.359375 185.390625 199.695312 185.332031 200.894531 184.875 C 201.433594 184.667969 201.347656 183.839844 200.839844 183.65625 " fill-opacity="1" fill-rule="nonzero"/><path fill="#5c3656" d="M 193.957031 154.035156 C 196.613281 157.578125 196.570312 162.097656 196.878906 166.308594 C 196.902344 166.679688 197.503906 166.640625 197.527344 166.28125 C 197.867188 161.582031 197.464844 157.394531 194.4375 153.628906 C 194.175781 153.304688 193.710938 153.714844 193.957031 154.035156 " fill-opacity="1" fill-rule="nonzero"/><path fill="#5c3656" d="M 192.675781 157.292969 C 194.585938 161.882812 195.425781 166.703125 195.441406 171.65625 C 195.449219 175.609375 193.234375 179.527344 193.773438 183.386719 C 193.867188 184.015625 194.777344 184.0625 194.984375 183.492188 C 198 175.425781 196.894531 164.703125 192.910156 157.179688 C 192.832031 157.023438 192.601562 157.136719 192.675781 157.292969 " fill-opacity="1" fill-rule="nonzero"/><path fill="#5c3656" d="M 197.480469 182.070312 C 198.601562 180.601562 198.292969 178.53125 198.035156 176.824219 C 197.988281 176.558594 197.605469 176.59375 197.574219 176.847656 C 197.339844 178.496094 197.386719 180.148438 196.878906 181.753906 C 196.769531 182.128906 197.242188 182.378906 197.480469 182.070312 " fill-opacity="1" fill-rule="nonzero"/><path fill="#5c3656" d="M 194.523438 152.179688 C 197.242188 149.746094 195.574219 145.316406 193.242188 143.292969 C 191.621094 141.882812 189.75 140.84375 187.851562 139.863281 C 185.703125 138.75 183.644531 137.207031 181.449219 136.242188 C 180.648438 135.882812 180.105469 136.917969 180.546875 137.53125 C 182.375 140.035156 186.609375 141.277344 189.234375 142.742188 C 190.925781 143.6875 192.59375 144.832031 193.597656 146.523438 C 194.695312 148.363281 193.921875 150.132812 194.199219 152.0625 C 194.222656 152.207031 194.414062 152.277344 194.523438 152.179688 " fill-opacity="1" fill-rule="nonzero"/><path fill="#5c3656" d="M 188.808594 151.714844 C 187.527344 151.476562 186.292969 151.046875 185.171875 150.363281 C 183.992188 149.644531 183.433594 148.496094 182.570312 147.511719 C 182.074219 146.941406 181.027344 147.375 181.195312 148.160156 C 181.785156 150.953125 186.246094 153.035156 188.839844 152.332031 C 189.179688 152.242188 189.164062 151.78125 188.808594 151.714844 " fill-opacity="1" fill-rule="nonzero"/><path fill="#5c3656" d="M 181.535156 144.179688 C 180.121094 147.78125 177.464844 146.972656 174.167969 147.082031 C 171.101562 147.179688 168.253906 147.054688 165.210938 146.789062 C 164.195312 146.695312 164.039062 147.992188 164.839844 148.40625 C 168.316406 150.1875 174.015625 149.144531 177.796875 148.964844 C 180.710938 148.824219 182.742188 147.621094 182.847656 144.480469 C 182.871094 143.71875 181.820312 143.445312 181.535156 144.179688 " fill-opacity="1" fill-rule="nonzero"/><path fill="#5c3656" d="M 181.414062 136.09375 C 178.425781 135.515625 175.273438 135.539062 172.238281 135.183594 C 169.066406 134.8125 165.9375 134.511719 162.742188 134.765625 C 161.382812 134.875 161.769531 136.921875 163.113281 136.839844 C 169.011719 136.453125 175.769531 138.707031 181.457031 137.109375 C 182.027344 136.957031 182 136.203125 181.414062 136.09375 " fill-opacity="1" fill-rule="nonzero"/><path fill="#5c3656" d="M 189.71875 152.742188 C 189.820312 152.757812 189.921875 152.769531 190.027344 152.78125 C 190.863281 152.882812 191.203125 151.511719 190.367188 151.320312 C 183.335938 149.675781 175.722656 151.019531 168.726562 149.378906 C 167.144531 149.011719 166.664062 151.183594 168.238281 151.53125 C 171.960938 152.363281 175.789062 151.789062 179.566406 152.027344 C 182.957031 152.242188 186.839844 153.570312 190.222656 152.773438 C 191.179688 152.546875 190.933594 151.160156 189.960938 151.285156 C 189.859375 151.296875 189.765625 151.308594 189.660156 151.320312 C 188.832031 151.417969 188.933594 152.648438 189.71875 152.742188 " fill-opacity="1" fill-rule="nonzero"/><path fill="#5c3656" d="M 167.21875 147.953125 C 165.304688 151.800781 163.660156 155.804688 161.769531 159.671875 C 159.839844 163.597656 157.707031 167.550781 156.214844 171.660156 C 154.980469 175.085938 155.074219 178.335938 155.234375 181.898438 C 155.351562 184.488281 155.699219 187.128906 158.171875 188.464844 C 159.230469 189.03125 160.269531 187.667969 159.265625 186.90625 C 156.65625 184.90625 156.996094 180.753906 157.011719 177.75 C 157.035156 173.988281 159.050781 170.378906 160.710938 167.113281 C 163.691406 161.25 167.46875 154.804688 168.710938 148.292969 C 168.878906 147.367188 167.574219 147.234375 167.21875 147.953125 " fill-opacity="1" fill-rule="nonzero"/><path fill="#5c3656" d="M 158.640625 188.691406 C 161.699219 192.371094 169.21875 189.648438 173.050781 188.769531 C 176.183594 188.050781 179.335938 187.421875 182.5 186.835938 C 184.640625 186.4375 188.253906 186.742188 189.996094 185.351562 C 190.300781 185.097656 190.261719 184.605469 189.9375 184.371094 C 188.570312 183.355469 186.429688 183.976562 184.855469 184.167969 C 181.660156 184.558594 178.5 185.1875 175.351562 185.878906 C 169.738281 187.105469 164.964844 188.722656 159.175781 187.65625 C 158.617188 187.554688 158.316406 188.296875 158.640625 188.691406 " fill-opacity="1" fill-rule="nonzero"/><path fill="#5c3656" d="M 194.660156 185.761719 C 195.1875 186.109375 195.796875 186.304688 196.335938 186.664062 C 196.964844 187.097656 197.496094 187.714844 197.945312 188.328125 C 198.285156 188.796875 198.648438 189.539062 198.5 190.132812 C 198.34375 190.746094 197.6875 191.089844 197.472656 191.695312 C 197.378906 191.988281 197.519531 192.304688 197.804688 192.414062 C 198.894531 192.832031 199.859375 191.960938 200.320312 191.042969 C 200.800781 190.089844 200.445312 188.867188 199.984375 187.988281 C 199.164062 186.417969 196.714844 184.054688 194.746094 184.75 C 194.328125 184.894531 194.316406 185.535156 194.660156 185.761719 " fill-opacity="1" fill-rule="nonzero"/><path fill="#5c3656" d="M 197.859375 191.699219 C 192.964844 191.203125 187.695312 191.539062 183.019531 193.132812 C 177.746094 194.933594 173.835938 198.125 169.753906 201.816406 C 165.351562 205.804688 160.347656 208.769531 155.460938 212.101562 C 152.566406 214.082031 150.101562 215.832031 146.71875 216.90625 C 144.078125 217.753906 141.363281 218.214844 138.996094 219.738281 C 138.386719 220.132812 138.605469 221.082031 139.386719 220.984375 C 149.902344 219.675781 158.339844 213.460938 166.679688 207.386719 C 171.46875 203.902344 175.242188 199.289062 180.585938 196.578125 C 185.992188 193.84375 192.082031 193.859375 197.90625 192.871094 C 198.570312 192.761719 198.523438 191.765625 197.859375 191.699219 " fill-opacity="1" fill-rule="nonzero"/><path fill="#5c3656" d="M 140.566406 220.335938 C 137.886719 223.679688 137.011719 228.082031 135.207031 231.898438 C 133.261719 236.039062 131.460938 240.484375 131.617188 245.113281 C 131.640625 245.773438 132.691406 246.175781 132.875 245.398438 C 133.792969 241.386719 135.042969 237.546875 136.644531 233.753906 C 138.394531 229.605469 139.824219 225.289062 141.996094 221.339844 C 142.542969 220.355469 141.277344 219.4375 140.566406 220.335938 " fill-opacity="1" fill-rule="nonzero"/><path fill="#5c3656" d="M 174.410156 186.230469 C 169.011719 185.351562 163.097656 185.515625 157.621094 185.527344 C 156.269531 185.53125 156.046875 187.617188 157.414062 187.632812 C 162.988281 187.691406 168.957031 188.375 174.464844 187.523438 C 175.226562 187.402344 175.117188 186.347656 174.410156 186.230469 " fill-opacity="1" fill-rule="nonzero"/><path fill="#5c3656" d="M 185.148438 152.898438 C 185.171875 154.050781 186.144531 155.054688 186.554688 156.140625 C 187.433594 158.453125 187.535156 161.15625 187.597656 163.597656 C 187.695312 167.746094 187.203125 172.40625 185.703125 176.304688 C 185.210938 177.566406 187.1875 178.292969 187.664062 177.03125 C 189.347656 172.554688 189.496094 167.375 189.242188 162.648438 C 189.140625 160.675781 188.800781 152.332031 185.417969 152.601562 C 185.289062 152.613281 185.140625 152.757812 185.148438 152.898438 " fill-opacity="1" fill-rule="nonzero"/><path fill="#5c3656" d="M 186.746094 176.546875 C 182.53125 175.820312 177.929688 176.535156 173.683594 176.824219 C 168.253906 177.195312 162.648438 177.542969 157.296875 176.234375 C 155.945312 175.898438 155.144531 177.925781 156.539062 178.304688 C 161.097656 179.542969 165.761719 179.496094 170.449219 179.21875 C 175.859375 178.894531 181.441406 178.683594 186.808594 177.980469 C 187.664062 177.867188 187.519531 176.675781 186.746094 176.546875 " fill-opacity="1" fill-rule="nonzero"/><path fill="#5c3656" d="M 161.097656 135.128906 C 158.449219 136.230469 156.472656 138.667969 154.5625 140.722656 C 153.484375 141.882812 152.417969 143.03125 151.285156 144.136719 C 150.316406 145.109375 149.136719 145.863281 148.394531 147.027344 C 148.03125 147.589844 148.480469 148.609375 149.25 148.371094 C 151.667969 147.605469 153.429688 145.167969 155.089844 143.34375 C 157.289062 140.929688 159.699219 138.753906 161.914062 136.371094 C 162.472656 135.769531 161.929688 134.78125 161.097656 135.128906 " fill-opacity="1" fill-rule="nonzero"/><path fill="#5c3656" d="M 170.433594 135.046875 C 170.183594 133.570312 169.691406 132.121094 169.050781 130.769531 C 168.578125 129.773438 167.453125 127.679688 166.09375 128.097656 C 165.769531 128.191406 165.429688 128.429688 165.429688 128.816406 C 165.429688 129.921875 166.640625 130.703125 167.152344 131.667969 C 167.824219 132.910156 168.191406 134.292969 168.71875 135.585938 C 169.121094 136.550781 170.601562 136.035156 170.433594 135.046875 " fill-opacity="1" fill-rule="nonzero"/><path fill="#5c3656" d="M 165.914062 129.089844 C 162.507812 126.011719 155.777344 126.550781 151.628906 127.679688 C 150.234375 128.058594 150.613281 130.277344 152.023438 129.890625 C 154.183594 129.304688 156.472656 129.148438 158.703125 129.121094 C 160.726562 129.101562 163.613281 129.046875 165.460938 129.953125 C 166.015625 130.222656 166.292969 129.429688 165.914062 129.089844 " fill-opacity="1" fill-rule="nonzero"/><path fill="#5c3656" d="M 151.382812 128.792969 C 147.855469 129.867188 145.421875 133.113281 142.339844 135.027344 C 139.136719 137.003906 135.097656 138.277344 132.644531 141.234375 C 131.996094 142.003906 133.035156 143.210938 133.902344 142.722656 C 140.417969 139.03125 146.410156 135.078125 151.960938 130.035156 C 152.441406 129.597656 152.101562 128.578125 151.382812 128.792969 " fill-opacity="1" fill-rule="nonzero"/><path fill="#5c3656" d="M 142.859375 134.457031 C 139.230469 133.699219 135.792969 135.269531 132.101562 134.183594 C 129.441406 133.402344 127.484375 133.535156 125.238281 135.265625 C 124.09375 136.15625 125.507812 137.6875 126.660156 136.9375 C 129.585938 135.046875 132.171875 136.8125 135.292969 136.898438 C 137.800781 136.960938 140.425781 136.21875 142.914062 135.9375 C 143.816406 135.832031 143.628906 134.617188 142.859375 134.457031 " fill-opacity="1" fill-rule="nonzero"/><path fill="#5c3656" d="M 136.613281 135.871094 C 137.082031 133.613281 135.160156 130.96875 133.996094 129.195312 C 133.144531 127.894531 130.75 123.988281 128.8125 124.480469 C 128.367188 124.589844 128.082031 124.960938 128.148438 125.425781 C 128.242188 126.148438 128.699219 126.414062 129.222656 126.855469 C 130.179688 127.664062 130.976562 128.652344 131.742188 129.628906 C 133.339844 131.667969 134.0625 133.875 135.191406 136.125 C 135.546875 136.835938 136.480469 136.578125 136.613281 135.871094 " fill-opacity="1" fill-rule="nonzero"/><path fill="#5c3656" d="M 127.308594 130.925781 C 127.222656 131.433594 127.152344 131.9375 127.113281 132.453125 C 127.054688 133.035156 127 133.523438 127.421875 133.984375 C 127.515625 134.09375 127.679688 134.171875 127.832031 134.132812 C 129.207031 133.792969 128.960938 131.925781 128.796875 130.863281 C 128.660156 129.992188 127.425781 130.109375 127.308594 130.925781 " fill-opacity="1" fill-rule="nonzero"/><path fill="#5c3656" d="M 128.628906 125.402344 C 127.339844 124.148438 125.394531 124.484375 123.738281 124.714844 C 121.789062 124.984375 119.515625 125.441406 117.824219 126.484375 C 116.550781 127.265625 117.503906 129.382812 118.835938 128.613281 C 121.492188 127.078125 124.960938 126.621094 127.980469 126.636719 C 128.566406 126.640625 129.152344 125.910156 128.628906 125.402344 " fill-opacity="1" fill-rule="nonzero"/><path fill="#5c3656" d="M 116.265625 127.628906 C 114.746094 130.664062 115.144531 134.203125 115.347656 137.484375 C 115.640625 142.089844 114.621094 146.71875 113.457031 151.167969 C 112.511719 154.808594 110.527344 157.96875 109.015625 161.371094 C 107.71875 164.273438 106.628906 167.261719 105.550781 170.25 C 101.8125 180.71875 97.316406 192.996094 96.050781 203.492188 C 95.953125 204.277344 97.117188 204.527344 97.386719 203.800781 C 101.101562 193.59375 104.003906 181.742188 107.734375 171.054688 C 110.003906 164.570312 113.6875 158.507812 115.59375 151.953125 C 116.660156 148.28125 117.578125 144.136719 117.6875 140.316406 C 117.800781 136.378906 116.453125 132.070312 118.203125 128.351562 C 118.773438 127.125 116.84375 126.453125 116.265625 127.628906 " fill-opacity="1" fill-rule="nonzero"/><path fill="#5c3656" d="M 83.875 230.617188 C 84.175781 227.976562 86.609375 225.488281 87.921875 223.269531 C 89.519531 220.597656 90.984375 217.839844 92.554688 215.164062 C 94.644531 211.597656 98.96875 205.917969 97.773438 201.601562 C 97.632812 201.097656 97.039062 200.941406 96.699219 201.367188 C 95.378906 203.019531 95.226562 205.203125 94.320312 207.117188 C 92.832031 210.230469 91.1875 213.25 89.511719 216.269531 C 86.964844 220.867188 84.714844 225.570312 82.484375 230.300781 C 82.058594 231.21875 83.75 231.707031 83.875 230.617188 " fill-opacity="1" fill-rule="nonzero"/></svg>